<?xml version="1.0" encoding="UTF-8" standalone="no"?>
<!-- Created with Inkscape (http://www.inkscape.org/) -->

<svg
   xmlns:dc="http://purl.org/dc/elements/1.1/"
   xmlns:cc="http://creativecommons.org/ns#"
   xmlns:rdf="http://www.w3.org/1999/02/22-rdf-syntax-ns#"
   xmlns:svg="http://www.w3.org/2000/svg"
   xmlns="http://www.w3.org/2000/svg"
   xmlns:sodipodi="http://sodipodi.sourceforge.net/DTD/sodipodi-0.dtd"
   xmlns:inkscape="http://www.inkscape.org/namespaces/inkscape"
   width="300"
   height="300"
   id="svg2"
   version="1.1"
   inkscape:version="0.48.2 r9819"
   sodipodi:docname="count_L.svg">
  <defs
     id="defs3">
    <style
       type="text/css"
       id="style5">
    @font-face {font-family: 'PT Sans'; 
	src: url('fonts/pts55f_w.eot'); 
	src: local('PT Sans'), url('fonts/PTS55F_W.woff') format('woff'),url('fonts/PTS55F_W.ttf') format('truetype');
	}

   </style>
  </defs>
  <sodipodi:namedview
     id="base"
     pagecolor="#818181"
     bordercolor="#666666"
     borderopacity="1.0"
     inkscape:pageopacity="1"
     inkscape:pageshadow="2"
     inkscape:zoom="0.98994952"
     inkscape:cx="-84.366047"
     inkscape:cy="172.16212"
     inkscape:document-units="px"
     inkscape:current-layer="layer1"
     showgrid="false"
     inkscape:window-width="1024"
     inkscape:window-height="706"
     inkscape:window-x="-8"
     inkscape:window-y="-8"
     inkscape:window-maximized="1"
     inkscape:snap-page="true"
     showguides="true"
     inkscape:guide-bbox="true"
     guidecolor="#ebff00"
     guideopacity="0.49803922">
    <sodipodi:guide
       orientation="1,0"
       position="5,0"
       id="guide3830" />
    <sodipodi:guide
       orientation="0,1"
       position="0,5"
       id="guide3832" />
    <sodipodi:guide
       orientation="1,0"
       position="295,0"
       id="guide3834" />
    <sodipodi:guide
       orientation="0,1"
       position="0,295"
       id="guide3836" />
    <sodipodi:guide
       orientation="1,0"
       position="150,0"
       id="guide2995" />
    <sodipodi:guide
       orientation="0,1"
       position="0,150"
       id="guide2997" />
    <sodipodi:guide
       orientation="1,0"
       position="450,0"
       id="guide2999" />
  </sodipodi:namedview>
  <metadata
     id="metadata7">
    <rdf:RDF>
      <cc:Work
         rdf:about="">
        <dc:format>image/svg+xml</dc:format>
        <dc:type
           rdf:resource="http://purl.org/dc/dcmitype/StillImage" />
        <dc:title></dc:title>
        <cc:license
           rdf:resource="http://creativecommons.org/licenses/publicdomain/" />
        <dc:language>ru-RU</dc:language>
      </cc:Work>
      <cc:License
         rdf:about="http://creativecommons.org/licenses/publicdomain/">
        <cc:permits
           rdf:resource="http://creativecommons.org/ns#Reproduction" />
        <cc:permits
           rdf:resource="http://creativecommons.org/ns#Distribution" />
        <cc:permits
           rdf:resource="http://creativecommons.org/ns#DerivativeWorks" />
      </cc:License>
    </rdf:RDF>
  </metadata>
  <g
     inkscape:label="Layer 1"
     inkscape:groupmode="layer"
     id="layer1"
     transform="translate(0,-752.36217)"
     style="display:inline">
    <rect
       style="fill:#00a6ff;fill-opacity:1;stroke:none;display:inline"
       id="rect2984-1"
       width="300"
       height="300"
       x="0"
       y="752.36218" />
    <path
       style="fill:#ffffff;fill-opacity:1;stroke:#ffffff;stroke-width:2;stroke-miterlimit:4;stroke-opacity:1;stroke-dasharray:none"
       d="m -1156.3641,1420.346 c -26.3213,-3.8021 -52.6616,-7.4722 -78.9946,-11.1925 4.0491,-11.4855 9.2346,-22.5686 15.5889,-33.0006 8.8762,-16.9017 21.0089,-34.4291 18.056,-54.5147 -2.5697,-18.678 -9.3156,-36.4892 -12.5803,-54.9916 -1.4527,-12.676 9.5378,-21.5569 17.5692,-29.6685 9.2951,-8.1515 19.5547,-15.3813 30.5762,-20.9843 9.4187,-1.9809 19.5669,0.4355 28.4068,-4.1402 12.0351,-2.9408 14.8876,13.9707 16.2755,18.4004 7.1447,-6.7631 17.7082,-2.0571 20.2598,6.5824 4.492,9.1828 -2.5924,17.1602 -5.7208,25.0851 6.4884,-3.5112 8.2482,-17.6972 18.1331,-15.3794 11.8572,2.2821 5.7103,16.678 11.0694,23.6337 9.4404,-1.3915 14.5851,8.0666 13.0983,16.3564 -0.6996,8.6915 -7.2137,15.6027 -7.7842,24.4329 -0.7729,9.1105 -6.5518,16.2397 -10.1233,24.3137 -4.9564,11.6998 -11.8272,22.6171 -20.7501,31.6777 -13.5762,18.4645 -26.5011,37.6995 -42.1355,54.4306 -3.628,0.489 -7.3375,-0.7055 -10.9444,-1.0411 z"
       id="path3015"
       inkscape:connector-curvature="0"
       sodipodi:nodetypes="ccccccccccccccccccc" />
    <text
       xml:space="preserve"
       style="font-size:40px;font-style:normal;font-weight:normal;line-height:125%;letter-spacing:0px;word-spacing:0px;fill:#00c8ff;fill-opacity:1;stroke:none;display:inline;font-family:Sans"
       x="5"
       y="1047.3622"
       id="text2986-4-1"
       sodipodi:linespacing="125%"><tspan
         sodipodi:role="line"
         id="tspan2988-0-7"
         x="5"
         y="1047.3622"
         style="font-size:16px;font-style:normal;font-variant:normal;font-weight:normal;font-stretch:normal;fill:#00c8ff;fill-opacity:1;font-family:PT Sans">16 PT Sans</tspan></text>
    <path
       style="fill:#ffffff;fill-opacity:1;stroke:#ffffff;stroke-width:2;stroke-miterlimit:4;stroke-opacity:1;stroke-dasharray:none;stroke-dashoffset:0"
       d="m -975.86429,1426.5366 c -15.3626,-4.36 -30.78041,-8.5428 -46.06041,-13.1836 8.6271,-20.8559 24.73391,-38.4081 30.68141,-60.5329 3.5984,-18.2249 -3.8717,-36.1553 -8.2686,-53.583 -2.05151,-8.5876 -6.81071,-16.7241 -5.74061,-25.7899 -0.5448,-20.962 1.0877,-42.1461 -2.4491,-62.891 -2.0618,-10.649 -9.4666,-19.3738 -11.7118,-29.8866 7.916,-8.8463 20.83871,3.3976 26.60811,10.5613 14.4749,16.9771 16.6626,40.0782 21.0867,61.0494 1.1347,10.755 15.1309,21.7042 21.4174,7.686 7.7212,-10.6115 9.1992,-27.137 22.7868,-32.4705 9.6371,-5.0088 26.3672,-4.4755 24.8641,10.2905 -0.6206,7.9477 -7.3124,14.0423 -9.789,21.5241 -2.8936,4.9645 -6.0077,13.7411 -0.1433,4.1688 6.8179,-6.8218 8.0281,-21.1028 18.2277,-22.7701 12.9559,-1.913 17.2726,14.3015 12.6115,23.7965 -1.7509,3.2723 -12.2497,15.9076 -7.3002,15.103 6.7929,-6.4994 11.1235,-25.3864 23.4777,-17.2424 7.5067,4.3082 4.5074,14.0446 5.2606,21.2671 2.5822,3.4841 16.649,1.3249 14.5225,11.9433 1.3236,13.1353 -9.975,22.9519 -10.8811,35.7304 -4.7843,11.4587 -11.8405,21.8989 -17.9341,32.7056 -8.4145,12.4496 -22.7868,19.0142 -31.6563,31.1405 -5.2115,4.7996 -10.8727,11.6056 -10.6182,15.9086 -4.632,5.9722 -5.3052,15.2129 -10.0399,21.8252 -1.7601,3.4867 -2.8893,8.414 -7.5678,5.2363 -13.7947,-3.8622 -27.5894,-7.7244 -41.3841,-11.5866 z"
       id="path3806"
       inkscape:connector-curvature="0" />
    <path
       style="fill:#ffffff;fill-opacity:1;stroke:#ffffff;stroke-width:2;stroke-miterlimit:4;stroke-opacity:1;stroke-dasharray:none;stroke-dashoffset:0"
       d="m -766.19519,1434.3085 c -12.874,-7.0602 -26.7038,-13.1977 -38.9196,-20.9961 8.3346,-15.2968 19.1486,-29.8463 23.7787,-46.9867 0.7262,-23.5544 -9.685,-45.5086 -14.3803,-68.1912 -1.2203,-15.7292 3.2836,-31.3046 3.0214,-47.0806 0.7028,-14.1336 0.2939,-28.9191 -6.9413,-41.5319 -7.5202,-9.9549 5.9441,-15.4387 12.5841,-7.4651 11.5654,8.5481 18.7845,22.4737 21.241,36.5007 3.0746,12.0212 2.7717,24.5382 4.7124,36.6649 2.076,14.3381 18.8992,13.3572 23.1594,0.9711 13.2347,-16.8035 20.2029,-37.3869 31.927,-55.1758 6.9239,-10.4626 14.2986,-20.5773 21.1557,-31.0834 5.289,-7.5755 13.5794,-21.0604 23.6851,-11.272 7.0066,9.6027 -5.3446,19.5689 -9.7893,27.8638 -11.7858,19.42 -21.6152,39.9449 -32.55,59.8216 0.3241,11.105 11.8486,-10.6041 18.7881,-8.0206 12.4761,-0.6624 15.1801,14.2141 11.0508,23.1892 -2.5026,6.0701 -13.5547,17.3083 -11.6957,20.6509 9.2945,-6.4407 11.8336,-26.3426 25.424,-22.327 14.2614,2.704 0.6574,21.8147 10.2142,24.7204 5.1548,-0.8559 11.6923,3.2571 10.1123,9.0306 1.6711,9.2628 -4.1392,17.2812 -8.1084,24.7376 -1.3023,11.1925 -6.5675,21.1134 -12.5008,30.7451 -5.2117,12.1216 -13.3159,22.8154 -24.2066,30.3614 -12.8283,9.1712 -19.2521,23.9443 -29.2426,35.7082 -7.1718,7.44 -12.3893,25.2543 -24.3032,13.5532 -9.452,-4.7043 -18.8435,-9.5289 -28.2164,-14.3883 z"
       id="path3823"
       inkscape:connector-curvature="0" />
    <path
       style="fill:#ffffff;fill-opacity:1;stroke:#ffffff;stroke-width:2;stroke-miterlimit:4;stroke-opacity:1;stroke-dasharray:none;stroke-dashoffset:0"
       d="m -519.42759,1422.7705 c -11.7377,-6.6019 -23.5472,-13.0836 -35.1588,-19.9046 4.0644,-8.5789 9.115,-17.282 12.95,-25.9346 7.3587,-19.1266 -1.9706,-39.1841 -6.9696,-57.6785 -4.3592,-11.4582 -5.9638,-23.852 -3.2898,-35.9078 3.0711,-20.6646 9.2034,-42.0723 3.4054,-62.7973 -6.0781,-8.2971 -3.7029,-22.5925 8.4861,-13.1318 9.6547,7.0828 15.7959,18.4938 18.7365,29.8984 2.1719,13.4484 2.4881,27.1117 2.0619,40.6872 0.8844,12.3759 14.6863,16.7073 21.1937,5.3455 15.4813,-20.3596 23.18,-45.3536 36.7397,-66.9617 6.7522,-10.9944 13.3381,-22.2984 20.8338,-32.6811 8.7922,-8.3254 21.9567,7.2719 12.4654,15.288 -12.3956,20.1214 -20.3892,42.487 -30.4004,63.7967 -5.572,10.5498 6.8917,14.589 10.842,4.0111 15.5798,-22.4309 36.0337,-40.7844 53.7007,-61.4909 7.2621,-10.1376 26.2811,3.3605 14.9547,12.2539 -16.5473,17.4121 -30.7948,36.769 -45.6402,55.6052 -5.1765,3.2271 -10.8486,13.1133 0.3125,10.1943 4.3617,1.7778 10.6765,5.4171 9.2815,11.0795 -0.3642,7.1574 -1.8819,15.2544 8.5263,12.5834 9.3803,5.1234 5.8805,24.0094 -2.0743,27.2056 -3.0802,10.4607 -4.4068,22.2215 -10.7327,31.8458 -5.1442,11.6234 -10.8713,23.2619 -21.2206,31.1831 -14.6968,10.7541 -25.764,25.7592 -38.566,38.6681 -6.3298,12.3598 -16.8284,-2.0929 -25.4944,-4.8141 -4.9808,-2.7816 -9.9623,-5.5634 -14.9434,-8.3434 z"
       id="path3840"
       inkscape:connector-curvature="0" />
    <path
       style="fill:#ffffff;fill-opacity:1;stroke:#ffffff;stroke-width:2;stroke-miterlimit:4;stroke-opacity:1;stroke-dasharray:none;stroke-dashoffset:0"
       d="m -1136.8808,1697.0143 c -12.4655,-7.8838 -24.9632,-15.7178 -37.3788,-23.6798 5.9915,-6.7091 14.4731,-6.6993 16.9317,-17.0687 2.6282,-5.0408 6.4731,-9.8958 5.5079,-15.8999 1.3282,-13.2396 -5.0582,-25.459 -8.4541,-37.9192 -3.6944,-10.0803 -9.3148,-20.9125 -7.6018,-31.7292 3.1476,-10.9002 4.7798,-23.2032 8.0192,-34.4429 1.9199,-11.7201 1.1872,-24.0165 -4.4695,-34.6672 -5.9237,-13.8371 12.9981,-8.9057 17.3734,-1.6484 12.9973,14.5694 14.5798,35.3686 12.9726,53.9783 -2.6273,10.1304 9.4,20.9219 18.2952,14.0239 7.608,-4.7273 10.8002,-13.1355 16.3568,-20.1163 5.9261,-9.3081 10.9237,-19.0268 17.0344,-28.1792 5.4412,-8.9975 11.6083,-17.4995 18.8742,-25.1072 4.7166,-7.1238 9.1846,-19.0725 18.7701,-19.8553 13.9816,4.1267 4.6155,18.5726 -1.4514,25.4987 -9.6394,16.3693 -17.786,33.6876 -26.9618,50.2242 0.9793,12.9615 10.6719,-2.9066 13.3534,-7.1563 5.4167,-8.5354 10.937,-17.4331 17.9636,-24.6072 6.9355,-8.3732 12.6336,-17.5419 19.5605,-25.9777 8.482,-9.36 20.0789,7.7916 9.7018,14.5377 -9.813,14.0893 -18.0969,29.1064 -27.308,43.5937 -4.3142,7.7069 -17.4288,15.2446 -12.6141,24.7591 11.2235,-6.0877 20.0608,-16.0493 29.7347,-24.3846 9.5201,-8.561 17.5207,-18.6495 27.00321,-27.2136 7.524,-3.8725 15.1838,4.0052 14.3811,11.6683 -7.6118,12.1232 -20.67291,19.9428 -28.76491,31.8439 -6.0189,6.6818 -12.466,11.4225 -17.7078,18.6166 -2.6553,4.2605 -11.9153,7.1029 -10.4317,8.8548 5.0319,-0.071 11.7206,-2.3004 14.9873,2.7559 4.5406,3.3509 1.0366,10.1776 1.9684,14.9096 -2.1791,8.9241 -7.9344,16.396 -9.0321,25.7529 -5.0622,13.9361 -11.9978,27.7895 -24.2692,36.7752 -14.2327,11.5232 -27.4306,24.2141 -39.0649,38.3716 -6.7696,13.1304 -18.3065,-3.2343 -27.1319,-6.3641 -5.3907,-3.3696 -10.7704,-6.7565 -16.1475,-10.1476 z"
       id="path3857"
       inkscape:connector-curvature="0"
       sodipodi:nodetypes="cccccccccccccccccccccccccccccccccccc" />
    <path
       style="fill:#ffffff;fill-opacity:1;stroke:#ffffff;stroke-width:2;stroke-miterlimit:4;stroke-opacity:1;stroke-dasharray:none;stroke-dashoffset:0"
       d="m -874.35189,1705.6783 c -10.3754,-5.7669 -21.0204,-11.1417 -31.0195,-17.5289 8.7101,-11.2491 14.6598,-24.355 21.0114,-37.0479 0.6878,-11.4387 -1.0525,-22.9105 -6.0562,-33.3056 -4.6169,-14.167 -13.3404,-28.7187 -8.603,-44.0404 3.6935,-17.96 10.4723,-36.8237 4.3035,-55.0245 -7.1457,-8.426 -2.1429,-19.3028 8.4066,-11.4658 11.682,8.1468 18.3112,22.3301 18.2833,36.4562 2.8187,11.2342 -5.388,28.0006 8.1936,34.1358 12.9793,3.0436 22.421,-8.8128 29.1825,-17.99 10.8124,-14.2383 16.8958,-31.4055 27.468,-45.8507 6.8253,-9.6229 14.0869,-18.8509 20.9047,-28.4354 5.3493,-14.5481 27.4951,-2.4477 15.7301,8.8717 -13.7116,18.3106 -22.3054,39.7279 -34.236,59.1329 -2.5163,15.6482 11.4041,1.9805 13.4974,-5.0843 7.6785,-12.24 16.4297,-23.755 25.8365,-34.7166 6.6208,-7.1308 10.3918,-15.5466 17.9638,-21.719 15.1462,-2.911 12.5273,14.6128 3.9449,20.9972 -7.4935,8.5875 -12.3861,18.7898 -18.6269,28.2218 -6.2687,11.199 -14.1162,21.365 -22.3198,31.1702 -4.5463,12.0861 10.7214,5.7511 12.5694,-1.1358 15.0136,-17.7743 32.3426,-33.4993 47.6825,-51.027 11.197,-9.978 20.2156,10.236 8.3529,16.2551 -18.8524,19.0048 -34.7181,40.6664 -52.4143,60.6601 -5.5672,8.5478 6.0958,14.6191 11.0752,5.8145 7.3865,-4.5405 13.3951,-12.3183 20.222,-18.1874 8.2633,-6.3879 11.5691,-20.3386 23.0341,-21.4516 13.0688,5.4921 0.5333,19.0968 -5.0259,25.9516 -15.3369,18.7 -35.1631,33.8383 -46.481,55.6596 -8.6753,13.3996 -15.9988,28.4513 -29.6202,37.6421 -6.8742,5.3662 -12.0043,13.0211 -20.1107,17.8823 -10.0272,7.5657 -19.8372,15.4657 -30.3127,22.4074 -11.1173,-5.3999 -21.9268,-11.4403 -32.8362,-17.2476 z"
       id="path3874"
       inkscape:connector-curvature="0" />
  </g>
</svg>
