<?xml version="1.0" encoding="UTF-8" standalone="no"?>
<!-- Created with Inkscape (http://www.inkscape.org/) -->

<svg
   xmlns:dc="http://purl.org/dc/elements/1.1/"
   xmlns:cc="http://creativecommons.org/ns#"
   xmlns:rdf="http://www.w3.org/1999/02/22-rdf-syntax-ns#"
   xmlns:svg="http://www.w3.org/2000/svg"
   xmlns="http://www.w3.org/2000/svg"
   xmlns:xlink="http://www.w3.org/1999/xlink"
   xmlns:sodipodi="http://sodipodi.sourceforge.net/DTD/sodipodi-0.dtd"
   xmlns:inkscape="http://www.inkscape.org/namespaces/inkscape"
   style="display:inline"
   inkscape:export-ydpi="90"
   inkscape:export-xdpi="90"
   inkscape:export-filename="D:\Z\FOTO\images\ZOOMTEXTDIV1.png"
   sodipodi:docname="menu_flexibeauty.svg"
   inkscape:version="0.48.2 r9819"
   version="1.1"
   id="svg2"
   height="60"
   width="60">
  <title
     id="title3195">flexible beauty</title>
  <sodipodi:namedview
     id="base"
     pagecolor="#000000"
     bordercolor="#666666"
     borderopacity="1.0"
     inkscape:pageopacity="0.39215686"
     inkscape:pageshadow="2"
     inkscape:zoom="8.0000001"
     inkscape:cx="20.600135"
     inkscape:cy="24.147544"
     inkscape:document-units="px"
     inkscape:current-layer="g4296"
     showgrid="false"
     inkscape:window-width="1024"
     inkscape:window-height="706"
     inkscape:window-x="-8"
     inkscape:window-y="-8"
     inkscape:window-maximized="1"
     showguides="true"
     inkscape:guide-bbox="true"
     inkscape:snap-nodes="true"
     inkscape:snap-bbox="true"
     inkscape:snap-global="true"
     fit-margin-top="0"
     fit-margin-left="0"
     fit-margin-right="0"
     fit-margin-bottom="0" />
  <defs
     id="defs4">
    <linearGradient
       id="linearGradient4073">
      <stop
         style="stop-color:#00dcfc;stop-opacity:1;"
         offset="0"
         id="stop4075" />
      <stop
         style="stop-color:#001dfc;stop-opacity:1;"
         offset="1"
         id="stop4077" />
    </linearGradient>
    <radialGradient
       inkscape:collect="always"
       xlink:href="#linearGradient4073"
       id="radialGradient4079"
       cx="41.349205"
       cy="19.452559"
       fx="41.349205"
       fy="19.452559"
       r="0.52549499"
       gradientTransform="matrix(0.79666972,0.0746122,0.00751801,0.4880201,6.8789628,7.3603239)"
       gradientUnits="userSpaceOnUse" />
    <radialGradient
       inkscape:collect="always"
       xlink:href="#linearGradient4073"
       id="radialGradient4081"
       cx="39.152927"
       cy="20.262087"
       fx="39.152927"
       fy="20.262087"
       r="0.72659236"
       gradientTransform="matrix(0.85060799,0.02628892,-0.00832481,0.26935864,5.0410303,14.145634)"
       gradientUnits="userSpaceOnUse" />
    <linearGradient
       inkscape:collect="always"
       xlink:href="#linearGradient4073"
       id="linearGradient4101"
       x1="27.856611"
       y1="18.207748"
       x2="35.753082"
       y2="18.207748"
       gradientUnits="userSpaceOnUse"
       gradientTransform="matrix(0.85101413,0,0,0.85101413,9.1094196,8.0961619)" />
    <linearGradient
       id="linearGradient4127-7-0-0">
      <stop
         style="stop-color:#fcff00;stop-opacity:1;"
         offset="0"
         id="stop4129-7-4-3" />
      <stop
         style="stop-color:#fbfe00;stop-opacity:0;"
         offset="1"
         id="stop4131-1-9-6" />
    </linearGradient>
    <linearGradient
       id="linearGradient4127-7-4">
      <stop
         style="stop-color:#fcff01;stop-opacity:1;"
         offset="0"
         id="stop4129-7-5" />
      <stop
         style="stop-color:#fbfe00;stop-opacity:0;"
         offset="1"
         id="stop4131-1-8" />
    </linearGradient>
    <linearGradient
       id="linearGradient4169-1">
      <stop
         id="stop4171-2"
         offset="0"
         style="stop-color:#00a1fe;stop-opacity:1;" />
      <stop
         id="stop4173-1"
         offset="1"
         style="stop-color:#fcff01;stop-opacity:1;" />
    </linearGradient>
    <radialGradient
       r="25"
       fy="25.132103"
       fx="24.869886"
       cy="25.132103"
       cx="24.869886"
       gradientUnits="userSpaceOnUse"
       id="radialGradient4277"
       xlink:href="#linearGradient4169-1"
       inkscape:collect="always" />
    <radialGradient
       inkscape:collect="always"
       xlink:href="#linearGradient4127-7-4"
       id="radialGradient4308"
       gradientUnits="userSpaceOnUse"
       cx="46.138718"
       cy="0.132103"
       fx="46.138718"
       fy="0.132103"
       r="7.7950435"
       gradientTransform="matrix(1,0.12195449,-0.12482767,0.99241732,0.01649011,-5.625822)" />
    <radialGradient
       inkscape:collect="always"
       xlink:href="#linearGradient4127-7-0-0"
       id="radialGradient4310"
       gradientUnits="userSpaceOnUse"
       cx="46.138718"
       cy="0.132103"
       fx="46.138718"
       fy="0.132103"
       r="7.7950435"
       gradientTransform="matrix(1.0154816,0.07622156,-0.07719094,0.99710724,-0.7041062,-3.5163827)" />
  </defs>
  <metadata
     id="metadata7">
    <rdf:RDF>
      <cc:Work
         rdf:about="">
        <dc:format>image/svg+xml</dc:format>
        <dc:type
           rdf:resource="http://purl.org/dc/dcmitype/StillImage" />
        <dc:title>flexible beauty</dc:title>
        <dc:date>2012-04-25</dc:date>
        <cc:license
           rdf:resource="http://creativecommons.org/licenses/publicdomain/" />
        <dc:language>ru-RU</dc:language>
        <dc:subject>
          <rdf:Bag>
            <rdf:li>гибкая красота</rdf:li>
            <rdf:li>красота</rdf:li>
            <rdf:li>красавица</rdf:li>
            <rdf:li>красивая самка</rdf:li>
            <rdf:li>красивая девушка</rdf:li>
            <rdf:li>красивая женщина</rdf:li>
            <rdf:li>красивая телочка</rdf:li>
            <rdf:li>красивая сучка</rdf:li>
            <rdf:li>красивая ципа</rdf:li>
            <rdf:li>хитрая красота</rdf:li>
            <rdf:li>хитрость</rdf:li>
            <rdf:li>хитрая</rdf:li>
            <rdf:li>хитрюга</rdf:li>
            <rdf:li>хитрая самка</rdf:li>
            <rdf:li>хитрая девушка</rdf:li>
            <rdf:li>хитрая женщина</rdf:li>
            <rdf:li>хитрая телочка</rdf:li>
            <rdf:li>хитрая сучка</rdf:li>
            <rdf:li>хитрая ципа</rdf:li>
            <rdf:li>светящийся шар</rdf:li>
            <rdf:li>flexible beauty</rdf:li>
            <rdf:li>female beauty</rdf:li>
            <rdf:li>beauty</rdf:li>
            <rdf:li>beautiful female</rdf:li>
            <rdf:li>beautiful girl</rdf:li>
            <rdf:li>beautiful woman</rdf:li>
            <rdf:li>beautiful bitch</rdf:li>
            <rdf:li>beautiful chick</rdf:li>
            <rdf:li>flexible cunning</rdf:li>
            <rdf:li>beauty cunning</rdf:li>
            <rdf:li>the cunning</rdf:li>
            <rdf:li>cunning female</rdf:li>
            <rdf:li>cunning girl</rdf:li>
            <rdf:li>cunning woman</rdf:li>
            <rdf:li>cunning bitch</rdf:li>
            <rdf:li>cunning chick</rdf:li>
            <rdf:li>light ball</rdf:li>
            <rdf:li>being shone ball</rdf:li>
          </rdf:Bag>
        </dc:subject>
        <dc:coverage>красота свет</dc:coverage>
        <dc:description>красивая девушка на фоне светящегося шара</dc:description>
        <dc:creator>
          <cc:Agent>
            <dc:title>formalldistort.org</dc:title>
          </cc:Agent>
        </dc:creator>
        <dc:rights>
          <cc:Agent>
            <dc:title>formalldistort.org</dc:title>
          </cc:Agent>
        </dc:rights>
        <dc:publisher>
          <cc:Agent>
            <dc:title>formalldistort.org</dc:title>
          </cc:Agent>
        </dc:publisher>
        <dc:identifier>http://www.formalldistort.org/menu_svg/menu_flexibeauty.svg</dc:identifier>
        <dc:source>http://www.l4soft.narod.ru/</dc:source>
        <dc:relation>http://www.l4soft.narod.ru/svg/download/menu_flexibeauty.svg</dc:relation>
        <dc:contributor>
          <cc:Agent>
            <dc:title>http://www.iskazkigolos.narod.ru http://www.nashsever.narod.ru</dc:title>
          </cc:Agent>
        </dc:contributor>
      </cc:Work>
      <cc:License
         rdf:about="http://creativecommons.org/licenses/publicdomain/">
        <cc:permits
           rdf:resource="http://creativecommons.org/ns#Reproduction" />
        <cc:permits
           rdf:resource="http://creativecommons.org/ns#Distribution" />
        <cc:permits
           rdf:resource="http://creativecommons.org/ns#DerivativeWorks" />
      </cc:License>
    </rdf:RDF>
  </metadata>
  <g
     inkscape:groupmode="layer"
     id="layer1"
     inkscape:label="big"
     style="display:inline"
     sodipodi:insensitive="true">
    <path
       sodipodi:type="arc"
       style="fill:url(#radialGradient4277);fill-opacity:1;stroke:none;display:inline"
       id="path4103"
       sodipodi:cx="24.869886"
       sodipodi:cy="25.132103"
       sodipodi:rx="25"
       sodipodi:ry="25"
       d="m 49.869886,25.132103 a 25,25 0 1 1 -49.9999996,0 25,25 0 1 1 49.9999996,0 z"
       transform="translate(5.1301131,4.867897)" />
  </g>
  <g
     style="display:inline"
     inkscape:label="FEMALE.png"
     id="layer13"
     inkscape:groupmode="layer"
     transform="translate(2.2484741e-7,1.8336914e-6)"
     sodipodi:insensitive="true">
    <path
       sodipodi:nodetypes="csssscssssssccsszssssssssssssscscc"
       inkscape:connector-curvature="0"
       id="path3954"
       d="m 40.531805,20.517897 c 0,0 -0.810183,-5.135551 -5.014905,-3.495237 -3.416795,1.332934 -0.556968,7.237122 -2.127535,9.118009 -5.026632,6.019815 -5.332869,2.585591 -8.596925,4.924574 -0.843842,0.604686 -1.42026,1.475433 -1.888252,2.457946 -0.05812,0.122031 -1.778637,1.866606 -2.473154,1.390336 -0.874637,-1.888243 -3.456222,-3.53763 -4.929537,-7.269378 -0.06215,-0.157418 -0.07406,-0.355797 -0.203971,-0.448745 -1.425916,-1.020233 -3.031193,-2.684382 -3.131113,-2.426268 -0.205335,0.530424 -0.171206,1.216617 0.212533,1.736077 0.418491,0.566502 1.364618,2.623147 1.608685,2.716559 0.454079,0.173791 3.995872,8.613512 4.545508,8.975407 0.821918,0.541174 2.079971,0.01186 2.556981,-0.211137 -0.350092,0.712772 -0.762763,1.36824 -1.298143,1.908052 -3.535827,1.268576 -5.110026,5.083322 -8.295126,6.233144 -0.75901,0.274004 -1.6414396,0.318433 -1.9376222,1.540938 -0.191923,0.792169 -1.2635068,1.873403 -1.4698939,2.242173 -0.206387,0.368772 -0.6381803,1.635987 -0.4277309,2.062845 0.1449306,0.293966 0.066241,0.366964 0.238082,0.812167 0.05668,0.146846 3.055051,-3.357554 3.668076,-3.896861 0.303588,-0.26708 0.480817,-0.403076 0.696699,-0.759978 0.279247,-0.461656 9.012897,-4.960369 9.660357,-5.575436 1.054182,-1.00144 4.980664,-1.793968 7.577973,-5.902889 1.008327,-1.595166 2.106546,-1.477364 3.025994,-1.899564 2.377417,-1.091683 3.201137,-2.479846 4.944518,-3.566682 1.027019,-0.640251 2.640691,1.89989 3.58533,-0.624754 0.533672,-1.426291 0.0843,-4.000191 1.247991,-6.151675 0.519998,-0.961394 0.462946,-1.617496 1.038095,-2.222571 0.825505,-0.868458 2.495245,-2.434868 3.419451,-3.355597 2.597544,-2.587775 4.785228,-6.038469 4.785228,-6.669629 0,-0.911801 0.151967,-2.2035201 -0.07599,-3.7991711 -0.8792,0.634981 -0.314534,1.219677 -0.972367,3.1365361 -0.309747,0.902572 -3.322875,3.630274 -5.083278,5.438581 -0.904881,0.840963 -3.745146,1.684771 -4.885961,3.582228 z"
       style="fill:#ffffff;fill-opacity:1;stroke:none" />
    <path
       style="fill:url(#radialGradient4081);fill-opacity:1;stroke:none"
       d="m 37.552415,20.797571 c 0,0 0.10073,-0.224926 0.575947,-0.341393 0.397657,-0.09746 0.676061,0.0447 0.670362,0.04733 0,0 -0.227466,0.186069 -0.597947,0.292407 -0.392013,0.112518 -0.648362,0.0016 -0.648362,0.0016 z"
       id="path4042"
       inkscape:connector-curvature="0"
       sodipodi:nodetypes="cscscc" />
    <path
       style="fill:url(#radialGradient4079);fill-opacity:1;stroke:none;display:inline"
       d="m 40.381563,19.72151 c 0,0 -0.273057,-0.07453 -0.518896,0.04104 -0.150369,0.07069 -0.310494,0.39342 -0.310494,0.39342 0,0 0.301326,0.02712 0.530974,-0.115748 0.227734,-0.141684 0.298414,-0.31874 0.298414,-0.31874 z"
       id="path4042-1"
       inkscape:connector-curvature="0"
       sodipodi:nodetypes="cscscc" />
    <path
       style="fill:url(#linearGradient4101);fill-opacity:1;stroke:none"
       d="m 38.295068,18.308836 c -0.419704,0.07115 -1.000201,0.357984 -1.254423,0.779575 -0.519841,0.862086 -0.368946,2.018069 -0.212754,3.012569 0.180279,1.147862 0.962731,2.12244 1.29966,3.234449 0.319408,1.054185 1.044086,2.195911 0.676977,3.234448 -0.316829,0.896299 -1.331085,1.438873 -2.208749,1.804166 -0.672942,0.280087 -1.461874,0.377982 -2.174919,0.226767 -0.565869,-0.120004 -1.232759,-0.35432 -1.504395,-0.865027 -0.247887,-0.466056 0.0297,-1.058322 0.11283,-1.579614 0.08954,-0.561494 0.29638,-1.098483 0.413708,-1.654835 0.118129,-0.560148 0.249908,-1.121505 0.291753,-1.692443 0.07516,-1.025558 -0.04637,-2.056106 -0.07522,-3.08401 -0.02217,-0.789894 -0.252136,-1.599275 -0.07522,-2.369421 0.158493,-0.689952 0.484038,-1.382295 0.986982,-1.880493 0.390372,-0.386688 0.94171,-0.590289 1.466785,-0.752198 0.482929,-0.148913 1.00472,-0.263689 1.504394,-0.188049 0.5714,0.0865 1.153241,0.324479 1.579615,0.714588 0.20708,0.189467 0.413708,0.733392 0.413708,0.733392 0,0 -0.368394,-0.03013 -0.545897,0.01007 -0.248165,0.05619 -0.410071,0.267796 -0.694833,0.316069 z"
       id="path4083"
       inkscape:connector-curvature="0"
       sodipodi:nodetypes="saaaaaaaaaaaaaaaacas" />
  </g>
  <g
     inkscape:groupmode="layer"
     id="layer2"
     inkscape:label="lit"
     style="display:inline" />
  <g
     style="display:inline"
     inkscape:label="lit yellow blue"
     id="g4296"
     inkscape:groupmode="layer">
    <path
       transform="matrix(1.464837,0,0,1.4876428,-17.535449,11.046165)"
       d="m 53.933761,0.132103 a 7.7950435,7.7950435 0 1 1 -15.590087,0 7.7950435,7.7950435 0 1 1 15.590087,0 z"
       sodipodi:ry="7.7950435"
       sodipodi:rx="7.7950435"
       sodipodi:cy="0.132103"
       sodipodi:cx="46.138718"
       id="path4298"
       style="fill:url(#radialGradient4308);fill-opacity:1;stroke:none;display:inline"
       sodipodi:type="arc" />
    <path
       transform="matrix(1.464837,0,0,1.4876428,-57.332652,49.373653)"
       d="m 53.933761,0.132103 a 7.7950435,7.7950435 0 1 1 -15.590087,0 7.7950435,7.7950435 0 1 1 15.590087,0 z"
       sodipodi:ry="7.7950435"
       sodipodi:rx="7.7950435"
       sodipodi:cy="0.132103"
       sodipodi:cx="46.138718"
       id="path4300"
       style="fill:url(#radialGradient4310);fill-opacity:1;stroke:none;display:inline"
       sodipodi:type="arc" />
  </g>
</svg>
