<?xml version="1.0" encoding="UTF-8" standalone="no"?>
<!-- Created with Inkscape (http://www.inkscape.org/) -->

<svg
   xmlns:dc="http://purl.org/dc/elements/1.1/"
   xmlns:cc="http://creativecommons.org/ns#"
   xmlns:rdf="http://www.w3.org/1999/02/22-rdf-syntax-ns#"
   xmlns:svg="http://www.w3.org/2000/svg"
   xmlns="http://www.w3.org/2000/svg"
   xmlns:sodipodi="http://sodipodi.sourceforge.net/DTD/sodipodi-0.dtd"
   xmlns:inkscape="http://www.inkscape.org/namespaces/inkscape"
   width="300"
   height="300"
   id="svg2"
   version="1.1"
   inkscape:version="0.48.2 r9819"
   sodipodi:docname="count_L5.svg">
  <title
     id="title2987">ладонь левой руки разогнуты пять пальцев</title>
  <sodipodi:namedview
     id="base"
     pagecolor="#818181"
     bordercolor="#666666"
     borderopacity="1.0"
     inkscape:pageopacity="1"
     inkscape:pageshadow="2"
     inkscape:zoom="0.9899495"
     inkscape:cx="221.17925"
     inkscape:cy="112.53014"
     inkscape:document-units="px"
     inkscape:current-layer="layer1"
     showgrid="false"
     inkscape:window-width="1024"
     inkscape:window-height="706"
     inkscape:window-x="-8"
     inkscape:window-y="-8"
     inkscape:window-maximized="1"
     inkscape:snap-page="true"
     showguides="true"
     inkscape:guide-bbox="true"
     guidecolor="#ebff00"
     guideopacity="0.49803922"
     inkscape:snap-object-midpoints="true"
     inkscape:snap-center="true" />
  <defs
     id="defs3">
    <style
       id="style5"
       type="text/css">
    @font-face {font-family: 'PT Sans'; 
	src: url('fonts/pts55f_w.eot'); 
	src: local('PT Sans'), url('fonts/PTS55F_W.woff') format('woff'),url('fonts/PTS55F_W.ttf') format('truetype');
	}

   </style>
  </defs>
  <metadata
     id="metadata7">
    <rdf:RDF>
      <cc:Work
         rdf:about="">
        <dc:format>image/svg+xml</dc:format>
        <dc:type
           rdf:resource="http://purl.org/dc/dcmitype/StillImage" />
        <dc:title>ладонь левой руки разогнуты 5 пальцев</dc:title>
        <dc:date>2012-04-25</dc:date>
        <cc:license
           rdf:resource="http://creativecommons.org/licenses/publicdomain/" />
        <dc:language>ru-RU</dc:language>
        <dc:subject>
          <rdf:Bag>
            <rdf:li>ладонь</rdf:li>
            <rdf:li>ладонь левой руки</rdf:li>
            <rdf:li>система счета на пальцах</rdf:li>
            <rdf:li>счет на пальцах</rdf:li>
            <rdf:li>счет чисел</rdf:li>
            <rdf:li>десятичное число 5</rdf:li>
            <rdf:li>palm</rdf:li>
            <rdf:li>left hand palm</rdf:li>
            <rdf:li>account system on fingers</rdf:li>
            <rdf:li>the account on fingers</rdf:li>
            <rdf:li>account of numbers</rdf:li>
            <rdf:li>decimal number 5</rdf:li>
          </rdf:Bag>
        </dc:subject>
        <dc:coverage>арифметика числа счет на пальцах</dc:coverage>
        <dc:description>Система счета на пальцах. Образ десятичного числа 5.</dc:description>
        <dc:creator>
          <cc:Agent>
            <dc:title>formalldistort.org</dc:title>
          </cc:Agent>
        </dc:creator>
        <dc:rights>
          <cc:Agent>
            <dc:title>formalldistort.org</dc:title>
          </cc:Agent>
        </dc:rights>
        <dc:publisher>
          <cc:Agent>
            <dc:title>formalldistort.org</dc:title>
          </cc:Agent>
        </dc:publisher>
        <dc:identifier>http://www.formalldistort.org/svg/count_L5.svg</dc:identifier>
        <dc:source>http://www.l4soft.narod.ru/</dc:source>
        <dc:relation>http://www.l4soft.narod.ru/svg/download/count_L5.svg</dc:relation>
        <dc:contributor>
          <cc:Agent>
            <dc:title>http://www.iskazkigolos.narod.ru http://www.nashsever.narod.ru</dc:title>
          </cc:Agent>
        </dc:contributor>
      </cc:Work>
      <cc:License
         rdf:about="http://creativecommons.org/licenses/publicdomain/">
        <cc:permits
           rdf:resource="http://creativecommons.org/ns#Reproduction" />
        <cc:permits
           rdf:resource="http://creativecommons.org/ns#Distribution" />
        <cc:permits
           rdf:resource="http://creativecommons.org/ns#DerivativeWorks" />
      </cc:License>
    </rdf:RDF>
  </metadata>
  <g
     style="display:inline"
     transform="translate(0,-752.36217)"
     id="layer1"
     inkscape:groupmode="layer"
     inkscape:label="Layer 1">
    <rect
       y="752.36218"
       x="0"
       height="300"
       width="300"
       id="rect2984-1"
       style="fill:#00a6ff;fill-opacity:1;stroke:none;display:inline" />
    <text
       sodipodi:linespacing="125%"
       id="text2986-4-1"
       y="1047.3622"
       x="5"
       style="font-size:40px;font-style:normal;font-weight:normal;line-height:125%;letter-spacing:0px;word-spacing:0px;fill:#00c8ff;fill-opacity:1;stroke:none;display:inline;font-family:Sans"
       xml:space="preserve"><tspan
         style="font-size:16px;font-style:normal;font-variant:normal;font-weight:normal;font-stretch:normal;fill:#00c8ff;fill-opacity:1;font-family:PT Sans"
         y="1047.3622"
         x="5"
         id="tspan2988-0-7"
         sodipodi:role="line">count_L5.svg</tspan></text>
    <path
       inkscape:connector-curvature="0"
       id="path3874"
       d="m 80.442387,1007.1282 c -10.3754,-5.7669 -21.0204,-11.14174 -31.0195,-17.52894 8.7101,-11.2491 14.6598,-24.355 21.0114,-37.0479 0.6878,-11.4387 -1.0525,-22.9105 -6.0562,-33.3056 -4.6169,-14.167 -13.3404,-28.7187 -8.603,-44.0404 3.6935,-17.96 10.4723,-36.8237 4.3035,-55.0245 -7.1457,-8.426 -2.1429,-19.3028 8.4066,-11.4658 11.682,8.1468 18.3112,22.3301 18.2833,36.4562 2.818698,11.2342 -5.388,28.0006 8.193598,34.1358 12.979305,3.0436 22.421005,-8.8128 29.182505,-17.99 10.8124,-14.2383 16.8958,-31.4055 27.468,-45.8507 6.8253,-9.6229 14.0869,-18.8509 20.9047,-28.4354 5.3493,-14.5481 27.4951,-2.4477 15.7301,8.8717 -13.7116,18.3106 -22.3054,39.7279 -34.236,59.1329 -2.5163,15.6482 11.4041,1.9805 13.4974,-5.0843 7.6785,-12.24 16.4297,-23.755 25.8365,-34.7166 6.6208,-7.1308 10.3918,-15.5466 17.9638,-21.719 15.1462,-2.911 12.5273,14.6128 3.9449,20.9972 -7.4935,8.5875 -12.3861,18.7898 -18.6269,28.2218 -6.2687,11.199 -14.1162,21.365 -22.3198,31.1702 -4.5463,12.0861 10.7214,5.7511 12.5694,-1.1358 15.0136,-17.7743 32.3426,-33.4993 47.6825,-51.027 11.197,-9.978 20.2156,10.236 8.3529,16.2551 -18.8524,19.0048 -34.7181,40.6664 -52.4143,60.6601 -5.5672,8.5478 6.0958,14.6191 11.0752,5.8145 7.3865,-4.5405 13.3951,-12.3183 20.222,-18.1874 8.2633,-6.3879 11.5691,-20.3386 23.0341,-21.4516 13.0688,5.4921 0.5333,19.0968 -5.0259,25.9516 -15.3369,18.7 -35.1631,33.8383 -46.481,55.6596 -8.6753,13.3996 -15.9988,28.4513 -29.6202,37.6421 -6.8742,5.3662 -12.0043,13.02113 -20.1107,17.88234 -10.0272,7.5657 -19.8372,15.4657 -30.3127,22.4074 -11.1173,-5.3999 -21.926805,-11.4403 -32.836203,-17.2476 z"
       style="fill:#ffffff;fill-opacity:1;stroke:#ffffff;stroke-width:2;stroke-miterlimit:4;stroke-opacity:1;stroke-dasharray:none;stroke-dashoffset:0" />
  </g>
</svg>
