<?xml version="1.0" encoding="UTF-8" standalone="no"?>
<!-- Created with Inkscape (http://www.inkscape.org/) -->

<svg
   xmlns:dc="http://purl.org/dc/elements/1.1/"
   xmlns:cc="http://creativecommons.org/ns#"
   xmlns:rdf="http://www.w3.org/1999/02/22-rdf-syntax-ns#"
   xmlns:svg="http://www.w3.org/2000/svg"
   xmlns="http://www.w3.org/2000/svg"
   xmlns:sodipodi="http://sodipodi.sourceforge.net/DTD/sodipodi-0.dtd"
   xmlns:inkscape="http://www.inkscape.org/namespaces/inkscape"
   width="150"
   height="150"
   id="svg2"
   version="1.1"
   inkscape:version="0.48.2 r9819"
   sodipodi:docname="count_003_037.svg">
  <sodipodi:namedview
     id="base"
     pagecolor="#818181"
     bordercolor="#666666"
     borderopacity="1.0"
     inkscape:pageopacity="1"
     inkscape:pageshadow="2"
     inkscape:zoom="4.051306"
     inkscape:cx="48.577817"
     inkscape:cy="85.120652"
     inkscape:document-units="px"
     inkscape:current-layer="layer1"
     showgrid="false"
     inkscape:window-width="1024"
     inkscape:window-height="706"
     inkscape:window-x="-8"
     inkscape:window-y="-8"
     inkscape:window-maximized="1"
     inkscape:snap-page="false"
     showguides="true"
     inkscape:guide-bbox="true"
     guidecolor="#ebff00"
     guideopacity="0.49803922"
     inkscape:snap-global="true"
     inkscape:snap-object-midpoints="true"
     inkscape:snap-center="true"
     fit-margin-top="0"
     fit-margin-left="0"
     fit-margin-right="0"
     fit-margin-bottom="0"
     inkscape:object-paths="false"
     inkscape:snap-midpoints="true"
     inkscape:snap-intersection-paths="false"
     inkscape:snap-grids="false"
     inkscape:snap-nodes="true"
     inkscape:snap-bbox="true"
     inkscape:snap-bbox-edge-midpoints="true"
     inkscape:snap-bbox-midpoints="true" />
  <title
     id="title3022">шестигранная система счета на пальцах</title>
  <defs
     id="defs3">
    <style
       id="style5"
       type="text/css">
    @font-face {font-family: 'PT Sans'; 
	src: url('fonts/pts55f_w.eot'); 
	src: local('PT Sans'), url('fonts/PTS55F_W.woff') format('woff'),url('fonts/PTS55F_W.ttf') format('truetype');
	}

   </style>
  </defs>
  <metadata
     id="metadata7">
    <rdf:RDF>
      <cc:Work
         rdf:about="">
        <dc:format>image/svg+xml</dc:format>
        <dc:type
           rdf:resource="http://purl.org/dc/dcmitype/StillImage" />
        <dc:title>шестигранная система счета на пальцах</dc:title>
        <dc:date>2012-04-25</dc:date>
        <cc:license
           rdf:resource="http://creativecommons.org/licenses/publicdomain/" />
        <dc:language>ru-RU</dc:language>
        <dc:subject>
          <rdf:Bag>
            <rdf:li>система счета</rdf:li>
            <rdf:li>шестигранная система счета на пальцах</rdf:li>
            <rdf:li>система счета на пальцах</rdf:li>
            <rdf:li>счет на пальцах</rdf:li>
            <rdf:li>счет чисел</rdf:li>
            <rdf:li>десятичное число 35</rdf:li>
            <rdf:li>account system</rdf:li>
            <rdf:li>hexahedral system of the account on fingers</rdf:li>
            <rdf:li>account system on fingers</rdf:li>
            <rdf:li>the account on fingers</rdf:li>
            <rdf:li>account of numbers</rdf:li>
            <rdf:li>decimal number 35</rdf:li>
          </rdf:Bag>
        </dc:subject>
        <dc:coverage>арифметика числа счет на пальцах</dc:coverage>
        <dc:description>шестигранная система счета на пальцах. Точечный образ десятичного числа 35.</dc:description>
        <dc:creator>
          <cc:Agent>
            <dc:title>formalldistort.org</dc:title>
          </cc:Agent>
        </dc:creator>
        <dc:rights>
          <cc:Agent>
            <dc:title>formalldistort.org</dc:title>
          </cc:Agent>
        </dc:rights>
        <dc:publisher>
          <cc:Agent>
            <dc:title>formalldistort.org</dc:title>
          </cc:Agent>
        </dc:publisher>
        <dc:identifier>http://www.formalldistort.org/svg/count_003_037.svg</dc:identifier>
        <dc:source>http://www.l4soft.narod.ru/</dc:source>
        <dc:relation>http://www.l4soft.narod.ru/svg/download/count_003_037.svg</dc:relation>
        <dc:contributor>
          <cc:Agent>
            <dc:title>http://www.iskazkigolos.narod.ru http://www.nashsever.narod.ru</dc:title>
          </cc:Agent>
        </dc:contributor>
      </cc:Work>
      <cc:License
         rdf:about="http://creativecommons.org/licenses/publicdomain/">
        <cc:permits
           rdf:resource="http://creativecommons.org/ns#Reproduction" />
        <cc:permits
           rdf:resource="http://creativecommons.org/ns#Distribution" />
        <cc:permits
           rdf:resource="http://creativecommons.org/ns#DerivativeWorks" />
      </cc:License>
    </rdf:RDF>
  </metadata>
  <g
     style="display:inline"
     transform="translate(0,-900.75427)"
     id="layer1"
     inkscape:groupmode="layer"
     inkscape:label="Layer 1">
    <rect
       y="900.75427"
       x="0"
       height="127.5"
       width="150"
       id="rect3006"
       style="fill:#00a6ff;fill-opacity:1;stroke:none" />
    <text
       sodipodi:linespacing="125%"
       id="text2986-4-1"
       y="1047.3622"
       x="5"
       style="font-size:40px;font-style:normal;font-weight:normal;line-height:125%;letter-spacing:0px;word-spacing:0px;fill:#00a6ff;fill-opacity:1;stroke:none;display:inline;font-family:Sans"
       xml:space="preserve"><tspan
         style="font-size:16px;font-style:normal;font-variant:normal;font-weight:normal;font-stretch:normal;fill:#00a6ff;fill-opacity:1;font-family:PT Sans"
         y="1047.3622"
         x="5"
         id="tspan2988-0-7"
         sodipodi:role="line">count_003_037.svg</tspan></text>
    <path
       transform="matrix(0,-0.67919954,0.67919982,0,20.077376,1107.5607)"
       d="m 167.32143,158.66072 c 0,4.78318 -3.87753,8.66071 -8.66071,8.66071 -4.78318,0 -8.66071,-3.87753 -8.66071,-8.66071 0,-4.78318 3.87753,-8.66071 8.66071,-8.66071 4.78318,0 8.66071,3.87753 8.66071,8.66071 z"
       sodipodi:ry="8.6607141"
       sodipodi:rx="8.6607141"
       sodipodi:cy="158.66072"
       sodipodi:cx="158.66072"
       id="path2994-9-4-5-2"
       style="fill:#ffffff;fill-opacity:1;stroke:none;display:inline"
       sodipodi:type="arc" />
    <path
       transform="matrix(0,-0.67919954,0.67919982,0,20.077376,1072.2665)"
       d="m 167.32143,158.66072 c 0,4.78318 -3.87753,8.66071 -8.66071,8.66071 -4.78318,0 -8.66071,-3.87753 -8.66071,-8.66071 0,-4.78318 3.87753,-8.66071 8.66071,-8.66071 4.78318,0 8.66071,3.87753 8.66071,8.66071 z"
       sodipodi:ry="8.6607141"
       sodipodi:rx="8.6607141"
       sodipodi:cy="158.66072"
       sodipodi:cx="158.66072"
       id="path2994-1-3-8-2-2"
       style="fill:#ffffff;fill-opacity:1;stroke:none;display:inline"
       sodipodi:type="arc" />
    <path
       transform="matrix(0,-0.67919954,0.67919982,0,20.077376,1054.6195)"
       d="m 167.32143,158.66072 c 0,4.78318 -3.87753,8.66071 -8.66071,8.66071 -4.78318,0 -8.66071,-3.87753 -8.66071,-8.66071 0,-4.78318 3.87753,-8.66071 8.66071,-8.66071 4.78318,0 8.66071,3.87753 8.66071,8.66071 z"
       sodipodi:ry="8.6607141"
       sodipodi:rx="8.6607141"
       sodipodi:cy="158.66072"
       sodipodi:cx="158.66072"
       id="path2994-7-19-8-7-1"
       style="fill:#ffffff;fill-opacity:1;stroke:none;display:inline"
       sodipodi:type="arc" />
    <path
       transform="matrix(0,-0.67919954,0.67919982,0,20.077376,1036.9724)"
       d="m 167.32143,158.66072 c 0,4.78318 -3.87753,8.66071 -8.66071,8.66071 -4.78318,0 -8.66071,-3.87753 -8.66071,-8.66071 0,-4.78318 3.87753,-8.66071 8.66071,-8.66071 4.78318,0 8.66071,3.87753 8.66071,8.66071 z"
       sodipodi:ry="8.6607141"
       sodipodi:rx="8.6607141"
       sodipodi:cy="158.66072"
       sodipodi:cx="158.66072"
       id="path2994-4-86-2-6-6"
       style="fill:#ffffff;fill-opacity:1;stroke:none;display:inline"
       sodipodi:type="arc" />
    <path
       transform="matrix(0,-0.67919954,0.67919982,0,20.077376,1089.9136)"
       d="m 167.32143,158.66072 c 0,4.78318 -3.87753,8.66071 -8.66071,8.66071 -4.78318,0 -8.66071,-3.87753 -8.66071,-8.66071 0,-4.78318 3.87753,-8.66071 8.66071,-8.66071 4.78318,0 8.66071,3.87753 8.66071,8.66071 z"
       sodipodi:ry="8.6607141"
       sodipodi:rx="8.6607141"
       sodipodi:cy="158.66072"
       sodipodi:cx="158.66072"
       id="path2994-9-4-4-2-5"
       style="fill:#ffffff;fill-opacity:1;stroke:none;display:inline"
       sodipodi:type="arc" />
    <path
       transform="matrix(-0.67919954,0,0,-0.67919982,200.40935,1107.5607)"
       d="m 167.32143,158.66072 c 0,4.78318 -3.87753,8.66071 -8.66071,8.66071 -4.78318,0 -8.66071,-3.87753 -8.66071,-8.66071 0,-4.78318 3.87753,-8.66071 8.66071,-8.66071 4.78318,0 8.66071,3.87753 8.66071,8.66071 z"
       sodipodi:ry="8.6607141"
       sodipodi:rx="8.6607141"
       sodipodi:cy="158.66072"
       sodipodi:cx="158.66072"
       id="path2994-9-4-5-2-6"
       style="fill:#ffffff;fill-opacity:1;stroke:none;display:inline"
       sodipodi:type="arc" />
    <path
       transform="matrix(-0.67919954,0,0,-0.67919982,165.11523,1107.5607)"
       d="m 167.32143,158.66072 c 0,4.78318 -3.87753,8.66071 -8.66071,8.66071 -4.78318,0 -8.66071,-3.87753 -8.66071,-8.66071 0,-4.78318 3.87753,-8.66071 8.66071,-8.66071 4.78318,0 8.66071,3.87753 8.66071,8.66071 z"
       sodipodi:ry="8.6607141"
       sodipodi:rx="8.6607141"
       sodipodi:cy="158.66072"
       sodipodi:cx="158.66072"
       id="path2994-1-3-8-2-2-0"
       style="fill:#ffffff;fill-opacity:1;stroke:none;display:inline"
       sodipodi:type="arc" />
    <path
       transform="matrix(-0.67919954,0,0,-0.67919982,147.46817,1107.5607)"
       d="m 167.32143,158.66072 c 0,4.78318 -3.87753,8.66071 -8.66071,8.66071 -4.78318,0 -8.66071,-3.87753 -8.66071,-8.66071 0,-4.78318 3.87753,-8.66071 8.66071,-8.66071 4.78318,0 8.66071,3.87753 8.66071,8.66071 z"
       sodipodi:ry="8.6607141"
       sodipodi:rx="8.6607141"
       sodipodi:cy="158.66072"
       sodipodi:cx="158.66072"
       id="path2994-7-19-8-7-1-2"
       style="fill:#ffffff;fill-opacity:1;stroke:none;display:inline"
       sodipodi:type="arc" />
    <path
       transform="matrix(-0.67919954,0,0,-0.67919982,129.82111,1107.5607)"
       d="m 167.32143,158.66072 c 0,4.78318 -3.87753,8.66071 -8.66071,8.66071 -4.78318,0 -8.66071,-3.87753 -8.66071,-8.66071 0,-4.78318 3.87753,-8.66071 8.66071,-8.66071 4.78318,0 8.66071,3.87753 8.66071,8.66071 z"
       sodipodi:ry="8.6607141"
       sodipodi:rx="8.6607141"
       sodipodi:cy="158.66072"
       sodipodi:cx="158.66072"
       id="path2994-4-86-2-6-6-4"
       style="fill:#ffffff;fill-opacity:1;stroke:none;display:inline"
       sodipodi:type="arc" />
    <path
       transform="matrix(-0.67919954,0,0,-0.67919982,218.05641,1107.5607)"
       d="m 167.32143,158.66072 c 0,4.78318 -3.87753,8.66071 -8.66071,8.66071 -4.78318,0 -8.66071,-3.87753 -8.66071,-8.66071 0,-4.78318 3.87753,-8.66071 8.66071,-8.66071 4.78318,0 8.66071,3.87753 8.66071,8.66071 z"
       sodipodi:ry="8.6607141"
       sodipodi:rx="8.6607141"
       sodipodi:cy="158.66072"
       sodipodi:cx="158.66072"
       id="path2994-17-8-4-1-8-8"
       style="fill:#ffffff;fill-opacity:1;stroke:none;display:inline"
       sodipodi:type="arc" />
    <path
       transform="matrix(-0.67919954,0,0,-0.67919982,182.76229,1107.5607)"
       d="m 167.32143,158.66072 c 0,4.78318 -3.87753,8.66071 -8.66071,8.66071 -4.78318,0 -8.66071,-3.87753 -8.66071,-8.66071 0,-4.78318 3.87753,-8.66071 8.66071,-8.66071 4.78318,0 8.66071,3.87753 8.66071,8.66071 z"
       sodipodi:ry="8.6607141"
       sodipodi:rx="8.6607141"
       sodipodi:cy="158.66072"
       sodipodi:cx="158.66072"
       id="path2994-9-4-4-2-5-6"
       style="fill:#ffffff;fill-opacity:1;stroke:none;display:inline"
       sodipodi:type="arc" />
    <path
       transform="matrix(-0.67919954,0,0,-0.67919982,200.40935,1054.6196)"
       d="m 167.32143,158.66072 c 0,4.78318 -3.87753,8.66071 -8.66071,8.66071 -4.78318,0 -8.66071,-3.87753 -8.66071,-8.66071 0,-4.78318 3.87753,-8.66071 8.66071,-8.66071 4.78318,0 8.66071,3.87753 8.66071,8.66071 z"
       sodipodi:ry="8.6607141"
       sodipodi:rx="8.6607141"
       sodipodi:cy="158.66072"
       sodipodi:cx="158.66072"
       id="path2994-9-4-5-2-0"
       style="fill:#ffffff;fill-opacity:1;stroke:none;display:inline"
       sodipodi:type="arc" />
    <path
       transform="matrix(-0.67919954,0,0,-0.67919982,165.11523,1054.6196)"
       d="m 167.32143,158.66072 c 0,4.78318 -3.87753,8.66071 -8.66071,8.66071 -4.78318,0 -8.66071,-3.87753 -8.66071,-8.66071 0,-4.78318 3.87753,-8.66071 8.66071,-8.66071 4.78318,0 8.66071,3.87753 8.66071,8.66071 z"
       sodipodi:ry="8.6607141"
       sodipodi:rx="8.6607141"
       sodipodi:cy="158.66072"
       sodipodi:cx="158.66072"
       id="path2994-1-3-8-2-2-9"
       style="fill:#ffffff;fill-opacity:1;stroke:none;display:inline"
       sodipodi:type="arc" />
    <path
       transform="matrix(-0.67919954,0,0,-0.67919982,147.46817,1054.6196)"
       d="m 167.32143,158.66072 c 0,4.78318 -3.87753,8.66071 -8.66071,8.66071 -4.78318,0 -8.66071,-3.87753 -8.66071,-8.66071 0,-4.78318 3.87753,-8.66071 8.66071,-8.66071 4.78318,0 8.66071,3.87753 8.66071,8.66071 z"
       sodipodi:ry="8.6607141"
       sodipodi:rx="8.6607141"
       sodipodi:cy="158.66072"
       sodipodi:cx="158.66072"
       id="path2994-7-19-8-7-1-0"
       style="fill:#ffffff;fill-opacity:1;stroke:none;display:inline"
       sodipodi:type="arc" />
    <path
       transform="matrix(-0.67919954,0,0,-0.67919982,129.82111,1054.6196)"
       d="m 167.32143,158.66072 c 0,4.78318 -3.87753,8.66071 -8.66071,8.66071 -4.78318,0 -8.66071,-3.87753 -8.66071,-8.66071 0,-4.78318 3.87753,-8.66071 8.66071,-8.66071 4.78318,0 8.66071,3.87753 8.66071,8.66071 z"
       sodipodi:ry="8.6607141"
       sodipodi:rx="8.6607141"
       sodipodi:cy="158.66072"
       sodipodi:cx="158.66072"
       id="path2994-4-86-2-6-6-0"
       style="fill:#ffffff;fill-opacity:1;stroke:none;display:inline"
       sodipodi:type="arc" />
    <path
       transform="matrix(-0.67919954,0,0,-0.67919982,218.05641,1054.6196)"
       d="m 167.32143,158.66072 c 0,4.78318 -3.87753,8.66071 -8.66071,8.66071 -4.78318,0 -8.66071,-3.87753 -8.66071,-8.66071 0,-4.78318 3.87753,-8.66071 8.66071,-8.66071 4.78318,0 8.66071,3.87753 8.66071,8.66071 z"
       sodipodi:ry="8.6607141"
       sodipodi:rx="8.6607141"
       sodipodi:cy="158.66072"
       sodipodi:cx="158.66072"
       id="path2994-17-8-4-1-8-6"
       style="fill:#ffffff;fill-opacity:1;stroke:none;display:inline"
       sodipodi:type="arc" />
    <path
       transform="matrix(-0.67919954,0,0,-0.67919982,182.76229,1054.6196)"
       d="m 167.32143,158.66072 c 0,4.78318 -3.87753,8.66071 -8.66071,8.66071 -4.78318,0 -8.66071,-3.87753 -8.66071,-8.66071 0,-4.78318 3.87753,-8.66071 8.66071,-8.66071 4.78318,0 8.66071,3.87753 8.66071,8.66071 z"
       sodipodi:ry="8.6607141"
       sodipodi:rx="8.6607141"
       sodipodi:cy="158.66072"
       sodipodi:cx="158.66072"
       id="path2994-9-4-4-2-5-1"
       style="fill:#ffffff;fill-opacity:1;stroke:none;display:inline"
       sodipodi:type="arc" />
    <path
       transform="matrix(-0.67919954,0,0,-0.67919982,200.40935,1072.2666)"
       d="m 167.32143,158.66072 c 0,4.78318 -3.87753,8.66071 -8.66071,8.66071 -4.78318,0 -8.66071,-3.87753 -8.66071,-8.66071 0,-4.78318 3.87753,-8.66071 8.66071,-8.66071 4.78318,0 8.66071,3.87753 8.66071,8.66071 z"
       sodipodi:ry="8.6607141"
       sodipodi:rx="8.6607141"
       sodipodi:cy="158.66072"
       sodipodi:cx="158.66072"
       id="path2994-9-4-5-2-8"
       style="fill:#ffffff;fill-opacity:1;stroke:none;display:inline"
       sodipodi:type="arc" />
    <path
       transform="matrix(-0.67919954,0,0,-0.67919982,165.11523,1072.2666)"
       d="m 167.32143,158.66072 c 0,4.78318 -3.87753,8.66071 -8.66071,8.66071 -4.78318,0 -8.66071,-3.87753 -8.66071,-8.66071 0,-4.78318 3.87753,-8.66071 8.66071,-8.66071 4.78318,0 8.66071,3.87753 8.66071,8.66071 z"
       sodipodi:ry="8.6607141"
       sodipodi:rx="8.6607141"
       sodipodi:cy="158.66072"
       sodipodi:cx="158.66072"
       id="path2994-1-3-8-2-2-93"
       style="fill:#ffffff;fill-opacity:1;stroke:none;display:inline"
       sodipodi:type="arc" />
    <path
       transform="matrix(-0.67919954,0,0,-0.67919982,147.46817,1072.2666)"
       d="m 167.32143,158.66072 c 0,4.78318 -3.87753,8.66071 -8.66071,8.66071 -4.78318,0 -8.66071,-3.87753 -8.66071,-8.66071 0,-4.78318 3.87753,-8.66071 8.66071,-8.66071 4.78318,0 8.66071,3.87753 8.66071,8.66071 z"
       sodipodi:ry="8.6607141"
       sodipodi:rx="8.6607141"
       sodipodi:cy="158.66072"
       sodipodi:cx="158.66072"
       id="path2994-7-19-8-7-1-4"
       style="fill:#ffffff;fill-opacity:1;stroke:none;display:inline"
       sodipodi:type="arc" />
    <path
       transform="matrix(-0.67919954,0,0,-0.67919982,129.82111,1072.2666)"
       d="m 167.32143,158.66072 c 0,4.78318 -3.87753,8.66071 -8.66071,8.66071 -4.78318,0 -8.66071,-3.87753 -8.66071,-8.66071 0,-4.78318 3.87753,-8.66071 8.66071,-8.66071 4.78318,0 8.66071,3.87753 8.66071,8.66071 z"
       sodipodi:ry="8.6607141"
       sodipodi:rx="8.6607141"
       sodipodi:cy="158.66072"
       sodipodi:cx="158.66072"
       id="path2994-4-86-2-6-6-46"
       style="fill:#ffffff;fill-opacity:1;stroke:none;display:inline"
       sodipodi:type="arc" />
    <path
       transform="matrix(-0.67919954,0,0,-0.67919982,218.05641,1072.2666)"
       d="m 167.32143,158.66072 c 0,4.78318 -3.87753,8.66071 -8.66071,8.66071 -4.78318,0 -8.66071,-3.87753 -8.66071,-8.66071 0,-4.78318 3.87753,-8.66071 8.66071,-8.66071 4.78318,0 8.66071,3.87753 8.66071,8.66071 z"
       sodipodi:ry="8.6607141"
       sodipodi:rx="8.6607141"
       sodipodi:cy="158.66072"
       sodipodi:cx="158.66072"
       id="path2994-17-8-4-1-8-0"
       style="fill:#ffffff;fill-opacity:1;stroke:none;display:inline"
       sodipodi:type="arc" />
    <path
       transform="matrix(-0.67919954,0,0,-0.67919982,182.76229,1072.2666)"
       d="m 167.32143,158.66072 c 0,4.78318 -3.87753,8.66071 -8.66071,8.66071 -4.78318,0 -8.66071,-3.87753 -8.66071,-8.66071 0,-4.78318 3.87753,-8.66071 8.66071,-8.66071 4.78318,0 8.66071,3.87753 8.66071,8.66071 z"
       sodipodi:ry="8.6607141"
       sodipodi:rx="8.6607141"
       sodipodi:cy="158.66072"
       sodipodi:cx="158.66072"
       id="path2994-9-4-4-2-5-66"
       style="fill:#ffffff;fill-opacity:1;stroke:none;display:inline"
       sodipodi:type="arc" />
    <path
       transform="matrix(-0.67919954,0,0,-0.67919982,200.40935,1036.9725)"
       d="m 167.32143,158.66072 c 0,4.78318 -3.87753,8.66071 -8.66071,8.66071 -4.78318,0 -8.66071,-3.87753 -8.66071,-8.66071 0,-4.78318 3.87753,-8.66071 8.66071,-8.66071 4.78318,0 8.66071,3.87753 8.66071,8.66071 z"
       sodipodi:ry="8.6607141"
       sodipodi:rx="8.6607141"
       sodipodi:cy="158.66072"
       sodipodi:cx="158.66072"
       id="path2994-9-4-5-2-84"
       style="fill:#ffffff;fill-opacity:1;stroke:none;display:inline"
       sodipodi:type="arc" />
    <path
       transform="matrix(-0.67919954,0,0,-0.67919982,165.11523,1036.9725)"
       d="m 167.32143,158.66072 c 0,4.78318 -3.87753,8.66071 -8.66071,8.66071 -4.78318,0 -8.66071,-3.87753 -8.66071,-8.66071 0,-4.78318 3.87753,-8.66071 8.66071,-8.66071 4.78318,0 8.66071,3.87753 8.66071,8.66071 z"
       sodipodi:ry="8.6607141"
       sodipodi:rx="8.6607141"
       sodipodi:cy="158.66072"
       sodipodi:cx="158.66072"
       id="path2994-1-3-8-2-2-96"
       style="fill:#ffffff;fill-opacity:1;stroke:none;display:inline"
       sodipodi:type="arc" />
    <path
       transform="matrix(-0.67919954,0,0,-0.67919982,147.46817,1036.9725)"
       d="m 167.32143,158.66072 c 0,4.78318 -3.87753,8.66071 -8.66071,8.66071 -4.78318,0 -8.66071,-3.87753 -8.66071,-8.66071 0,-4.78318 3.87753,-8.66071 8.66071,-8.66071 4.78318,0 8.66071,3.87753 8.66071,8.66071 z"
       sodipodi:ry="8.6607141"
       sodipodi:rx="8.6607141"
       sodipodi:cy="158.66072"
       sodipodi:cx="158.66072"
       id="path2994-7-19-8-7-1-3"
       style="fill:#ffffff;fill-opacity:1;stroke:none;display:inline"
       sodipodi:type="arc" />
    <path
       transform="matrix(-0.67919954,0,0,-0.67919982,129.82111,1036.9725)"
       d="m 167.32143,158.66072 c 0,4.78318 -3.87753,8.66071 -8.66071,8.66071 -4.78318,0 -8.66071,-3.87753 -8.66071,-8.66071 0,-4.78318 3.87753,-8.66071 8.66071,-8.66071 4.78318,0 8.66071,3.87753 8.66071,8.66071 z"
       sodipodi:ry="8.6607141"
       sodipodi:rx="8.6607141"
       sodipodi:cy="158.66072"
       sodipodi:cx="158.66072"
       id="path2994-4-86-2-6-6-7"
       style="fill:#ffffff;fill-opacity:1;stroke:none;display:inline"
       sodipodi:type="arc" />
    <path
       transform="matrix(-0.67919954,0,0,-0.67919982,218.05641,1036.9725)"
       d="m 167.32143,158.66072 c 0,4.78318 -3.87753,8.66071 -8.66071,8.66071 -4.78318,0 -8.66071,-3.87753 -8.66071,-8.66071 0,-4.78318 3.87753,-8.66071 8.66071,-8.66071 4.78318,0 8.66071,3.87753 8.66071,8.66071 z"
       sodipodi:ry="8.6607141"
       sodipodi:rx="8.6607141"
       sodipodi:cy="158.66072"
       sodipodi:cx="158.66072"
       id="path2994-17-8-4-1-8-88"
       style="fill:#ffffff;fill-opacity:1;stroke:none;display:inline"
       sodipodi:type="arc" />
    <path
       transform="matrix(-0.67919954,0,0,-0.67919982,182.76229,1036.9725)"
       d="m 167.32143,158.66072 c 0,4.78318 -3.87753,8.66071 -8.66071,8.66071 -4.78318,0 -8.66071,-3.87753 -8.66071,-8.66071 0,-4.78318 3.87753,-8.66071 8.66071,-8.66071 4.78318,0 8.66071,3.87753 8.66071,8.66071 z"
       sodipodi:ry="8.6607141"
       sodipodi:rx="8.6607141"
       sodipodi:cy="158.66072"
       sodipodi:cx="158.66072"
       id="path2994-9-4-4-2-5-2"
       style="fill:#ffffff;fill-opacity:1;stroke:none;display:inline"
       sodipodi:type="arc" />
    <path
       transform="matrix(-0.67919954,0,0,-0.67919982,200.40935,1089.9137)"
       d="m 167.32143,158.66072 c 0,4.78318 -3.87753,8.66071 -8.66071,8.66071 -4.78318,0 -8.66071,-3.87753 -8.66071,-8.66071 0,-4.78318 3.87753,-8.66071 8.66071,-8.66071 4.78318,0 8.66071,3.87753 8.66071,8.66071 z"
       sodipodi:ry="8.6607141"
       sodipodi:rx="8.6607141"
       sodipodi:cy="158.66072"
       sodipodi:cx="158.66072"
       id="path2994-9-4-5-2-1"
       style="fill:#ffffff;fill-opacity:1;stroke:none;display:inline"
       sodipodi:type="arc" />
    <path
       transform="matrix(-0.67919954,0,0,-0.67919982,165.11523,1089.9137)"
       d="m 167.32143,158.66072 c 0,4.78318 -3.87753,8.66071 -8.66071,8.66071 -4.78318,0 -8.66071,-3.87753 -8.66071,-8.66071 0,-4.78318 3.87753,-8.66071 8.66071,-8.66071 4.78318,0 8.66071,3.87753 8.66071,8.66071 z"
       sodipodi:ry="8.6607141"
       sodipodi:rx="8.6607141"
       sodipodi:cy="158.66072"
       sodipodi:cx="158.66072"
       id="path2994-1-3-8-2-2-3"
       style="fill:#ffffff;fill-opacity:1;stroke:none;display:inline"
       sodipodi:type="arc" />
    <path
       transform="matrix(-0.67919954,0,0,-0.67919982,147.46817,1089.9137)"
       d="m 167.32143,158.66072 c 0,4.78318 -3.87753,8.66071 -8.66071,8.66071 -4.78318,0 -8.66071,-3.87753 -8.66071,-8.66071 0,-4.78318 3.87753,-8.66071 8.66071,-8.66071 4.78318,0 8.66071,3.87753 8.66071,8.66071 z"
       sodipodi:ry="8.6607141"
       sodipodi:rx="8.6607141"
       sodipodi:cy="158.66072"
       sodipodi:cx="158.66072"
       id="path2994-7-19-8-7-1-5"
       style="fill:#ffffff;fill-opacity:1;stroke:none;display:inline"
       sodipodi:type="arc" />
    <path
       transform="matrix(-0.67919954,0,0,-0.67919982,129.82111,1089.9137)"
       d="m 167.32143,158.66072 c 0,4.78318 -3.87753,8.66071 -8.66071,8.66071 -4.78318,0 -8.66071,-3.87753 -8.66071,-8.66071 0,-4.78318 3.87753,-8.66071 8.66071,-8.66071 4.78318,0 8.66071,3.87753 8.66071,8.66071 z"
       sodipodi:ry="8.6607141"
       sodipodi:rx="8.6607141"
       sodipodi:cy="158.66072"
       sodipodi:cx="158.66072"
       id="path2994-4-86-2-6-6-9"
       style="fill:#ffffff;fill-opacity:1;stroke:none;display:inline"
       sodipodi:type="arc" />
    <path
       transform="matrix(-0.67919954,0,0,-0.67919982,218.05641,1089.9137)"
       d="m 167.32143,158.66072 c 0,4.78318 -3.87753,8.66071 -8.66071,8.66071 -4.78318,0 -8.66071,-3.87753 -8.66071,-8.66071 0,-4.78318 3.87753,-8.66071 8.66071,-8.66071 4.78318,0 8.66071,3.87753 8.66071,8.66071 z"
       sodipodi:ry="8.6607141"
       sodipodi:rx="8.6607141"
       sodipodi:cy="158.66072"
       sodipodi:cx="158.66072"
       id="path2994-17-8-4-1-8-84"
       style="fill:#ffffff;fill-opacity:1;stroke:none;display:inline"
       sodipodi:type="arc" />
    <path
       transform="matrix(-0.67919954,0,0,-0.67919982,182.76229,1089.9137)"
       d="m 167.32143,158.66072 c 0,4.78318 -3.87753,8.66071 -8.66071,8.66071 -4.78318,0 -8.66071,-3.87753 -8.66071,-8.66071 0,-4.78318 3.87753,-8.66071 8.66071,-8.66071 4.78318,0 8.66071,3.87753 8.66071,8.66071 z"
       sodipodi:ry="8.6607141"
       sodipodi:rx="8.6607141"
       sodipodi:cy="158.66072"
       sodipodi:cx="158.66072"
       id="path2994-9-4-4-2-5-0"
       style="fill:#ffffff;fill-opacity:1;stroke:none;display:inline"
       sodipodi:type="arc" />
    <path
       style="fill:none;stroke:#0000ff;stroke-width:2;stroke-linecap:round;stroke-linejoin:miter;stroke-miterlimit:4;stroke-opacity:1;stroke-dasharray:none"
       d="m 22.05882,999.79841 105.78089,-70.5883"
       id="path3021"
       inkscape:connector-curvature="0"
       sodipodi:nodetypes="cc" />
    <path
       style="fill:none;stroke:#0000ff;stroke-width:2;stroke-linecap:round;stroke-linejoin:miter;stroke-miterlimit:4;stroke-opacity:1;stroke-dasharray:none;display:inline"
       d="M 127.83971,999.79841 22.058821,929.21017"
       id="path3021-1"
       inkscape:connector-curvature="0"
       sodipodi:nodetypes="cc" />
    <path
       style="fill:none;stroke:#0000ff;stroke-width:2;stroke-linecap:round;stroke-linejoin:miter;stroke-miterlimit:4;stroke-opacity:1;stroke-dasharray:none;display:inline"
       d="m 75.000001,999.79837 0,-70.5882"
       id="path3021-7"
       inkscape:connector-curvature="0"
       sodipodi:nodetypes="cc" />
    <path
       style="fill:none;stroke:#0000ff;stroke-width:2;stroke-linecap:round;stroke-linejoin:miter;stroke-miterlimit:4;stroke-opacity:1;stroke-dasharray:none;display:inline"
       d="m 127.83971,964.50421 -105.780889,6e-5"
       id="path3021-4"
       inkscape:connector-curvature="0"
       sodipodi:nodetypes="cc" />
    <path
       style="fill:none;stroke:#0000ff;stroke-width:2;stroke-linecap:round;stroke-linejoin:miter;stroke-miterlimit:4;stroke-opacity:1;stroke-dasharray:none;display:inline"
       d="M 110.29412,999.79837 39.705881,929.21017"
       id="path3021-0"
       inkscape:connector-curvature="0"
       sodipodi:nodetypes="cc" />
    <path
       style="fill:none;stroke:#0000ff;stroke-width:2;stroke-linecap:round;stroke-linejoin:miter;stroke-miterlimit:4;stroke-opacity:1;stroke-dasharray:none;display:inline"
       d="m 92.647061,999.79837 -35.29412,-70.5882"
       id="path3021-9"
       inkscape:connector-curvature="0"
       sodipodi:nodetypes="cc" />
    <path
       style="fill:none;stroke:#0000ff;stroke-width:2;stroke-linecap:round;stroke-linejoin:miter;stroke-miterlimit:4;stroke-opacity:1;stroke-dasharray:none;display:inline"
       d="m 57.352941,999.79837 35.29412,-70.5882"
       id="path3021-48"
       inkscape:connector-curvature="0"
       sodipodi:nodetypes="cc" />
    <path
       style="fill:none;stroke:#0000ff;stroke-width:2;stroke-linecap:round;stroke-linejoin:miter;stroke-miterlimit:4;stroke-opacity:1;stroke-dasharray:none;display:inline"
       d="m 39.705881,999.79837 70.588239,-70.5882"
       id="path3021-8"
       inkscape:connector-curvature="0"
       sodipodi:nodetypes="cc" />
    <path
       style="fill:none;stroke:#0000ff;stroke-width:2;stroke-linecap:round;stroke-linejoin:miter;stroke-miterlimit:4;stroke-opacity:1;stroke-dasharray:none;display:inline"
       d="M 22.058821,982.15137 127.83971,946.85721"
       id="path3021-2"
       inkscape:connector-curvature="0"
       sodipodi:nodetypes="cc" />
    <path
       style="fill:none;stroke:#0000ff;stroke-width:2;stroke-linecap:round;stroke-linejoin:miter;stroke-miterlimit:4;stroke-opacity:1;stroke-dasharray:none;display:inline"
       d="M 127.83971,982.15131 22.058821,946.85727"
       id="path3021-45"
       inkscape:connector-curvature="0"
       sodipodi:nodetypes="cc" />
  </g>
</svg>
