<?xml version="1.0" encoding="UTF-8" standalone="no"?>
<!-- Created with Inkscape (http://www.inkscape.org/) -->

<svg
   xmlns:dc="http://purl.org/dc/elements/1.1/"
   xmlns:cc="http://creativecommons.org/ns#"
   xmlns:rdf="http://www.w3.org/1999/02/22-rdf-syntax-ns#"
   xmlns:svg="http://www.w3.org/2000/svg"
   xmlns="http://www.w3.org/2000/svg"
   xmlns:sodipodi="http://sodipodi.sourceforge.net/DTD/sodipodi-0.dtd"
   xmlns:inkscape="http://www.inkscape.org/namespaces/inkscape"
   width="300"
   height="300"
   id="svg2"
   version="1.1"
   inkscape:version="0.48.2 r9819"
   sodipodi:docname="count_R4.svg">
  <title
     id="title2987">ладонь правой руки разогнуты четыре пальца</title>
  <sodipodi:namedview
     id="base"
     pagecolor="#818181"
     bordercolor="#666666"
     borderopacity="1.0"
     inkscape:pageopacity="1"
     inkscape:pageshadow="2"
     inkscape:zoom="0.9899495"
     inkscape:cx="133.66451"
     inkscape:cy="111.81859"
     inkscape:document-units="px"
     inkscape:current-layer="layer1"
     showgrid="false"
     inkscape:window-width="1024"
     inkscape:window-height="706"
     inkscape:window-x="-8"
     inkscape:window-y="-8"
     inkscape:window-maximized="1"
     inkscape:snap-page="true"
     showguides="true"
     inkscape:guide-bbox="true"
     guidecolor="#ebff00"
     guideopacity="0.49803922"
     inkscape:snap-object-midpoints="true"
     inkscape:snap-center="true" />
  <defs
     id="defs3">
    <style
       id="style5"
       type="text/css">
    @font-face {font-family: 'PT Sans'; 
	src: url('fonts/pts55f_w.eot'); 
	src: local('PT Sans'), url('fonts/PTS55F_W.woff') format('woff'),url('fonts/PTS55F_W.ttf') format('truetype');
	}

   </style>
  </defs>
  <metadata
     id="metadata7">
    <rdf:RDF>
      <cc:Work
         rdf:about="">
        <dc:format>image/svg+xml</dc:format>
        <dc:type
           rdf:resource="http://purl.org/dc/dcmitype/StillImage" />
        <dc:title>ладонь правой руки разогнуты 4 пальца</dc:title>
        <dc:date>2012-04-25</dc:date>
        <cc:license
           rdf:resource="http://creativecommons.org/licenses/publicdomain/" />
        <dc:language>ru-RU</dc:language>
        <dc:subject>
          <rdf:Bag>
            <rdf:li>ладонь</rdf:li>
            <rdf:li>ладонь правой руки</rdf:li>
            <rdf:li>система счета на пальцах</rdf:li>
            <rdf:li>счет на пальцах</rdf:li>
            <rdf:li>счет чисел</rdf:li>
            <rdf:li>десятичное число 4</rdf:li>
            <rdf:li>palm</rdf:li>
            <rdf:li>right hand palm</rdf:li>
            <rdf:li>account system on fingers</rdf:li>
            <rdf:li>the account on fingers</rdf:li>
            <rdf:li>account of numbers</rdf:li>
            <rdf:li>decimal number 4</rdf:li>
          </rdf:Bag>
        </dc:subject>
        <dc:coverage>арифметика числа счет на пальцах</dc:coverage>
        <dc:description>Система счета на пальцах. Образ десятичного числа 4.</dc:description>
        <dc:creator>
          <cc:Agent>
            <dc:title>formalldistort.org</dc:title>
          </cc:Agent>
        </dc:creator>
        <dc:rights>
          <cc:Agent>
            <dc:title>formalldistort.org</dc:title>
          </cc:Agent>
        </dc:rights>
        <dc:publisher>
          <cc:Agent>
            <dc:title>formalldistort.org</dc:title>
          </cc:Agent>
        </dc:publisher>
        <dc:identifier>http://www.formalldistort.org/svg/count_R4.svg</dc:identifier>
        <dc:source>http://www.l4soft.narod.ru/</dc:source>
        <dc:relation>http://www.l4soft.narod.ru/svg/download/count_R4.svg</dc:relation>
        <dc:contributor>
          <cc:Agent>
            <dc:title>http://www.iskazkigolos.narod.ru http://www.nashsever.narod.ru</dc:title>
          </cc:Agent>
        </dc:contributor>
      </cc:Work>
      <cc:License
         rdf:about="http://creativecommons.org/licenses/publicdomain/">
        <cc:permits
           rdf:resource="http://creativecommons.org/ns#Reproduction" />
        <cc:permits
           rdf:resource="http://creativecommons.org/ns#Distribution" />
        <cc:permits
           rdf:resource="http://creativecommons.org/ns#DerivativeWorks" />
      </cc:License>
    </rdf:RDF>
  </metadata>
  <g
     style="display:inline"
     transform="translate(0,-752.36217)"
     id="layer1"
     inkscape:groupmode="layer"
     inkscape:label="Layer 1">
    <rect
       y="752.36218"
       x="0"
       height="300"
       width="300"
       id="rect2984-1"
       style="fill:#00a6ff;fill-opacity:1;stroke:none;display:inline" />
    <text
       sodipodi:linespacing="125%"
       id="text2986-4-1"
       y="1047.3622"
       x="5"
       style="font-size:40px;font-style:normal;font-weight:normal;line-height:125%;letter-spacing:0px;word-spacing:0px;fill:#00c8ff;fill-opacity:1;stroke:none;display:inline;font-family:Sans"
       xml:space="preserve"><tspan
         style="font-size:16px;font-style:normal;font-variant:normal;font-weight:normal;font-stretch:normal;fill:#00c8ff;fill-opacity:1;font-family:PT Sans"
         y="1047.3622"
         x="5"
         id="tspan2988-0-7"
         sodipodi:role="line">count_R4.svg</tspan></text>
    <path
       sodipodi:nodetypes="cccccccccccccccccccccccccccccccccccc"
       inkscape:connector-curvature="0"
       id="path3857"
       d="m 209.13679,1002.7467 c 12.4655,-7.88381 24.9632,-15.71781 37.3788,-23.67981 -5.9915,-6.7091 -14.4731,-6.6993 -16.9317,-17.0687 -2.6282,-5.0408 -6.4731,-9.8958 -5.5079,-15.8999 -1.3282,-13.2396 5.0582,-25.459 8.4541,-37.9192 3.6944,-10.0803 9.3148,-20.9125 7.6018,-31.7292 -3.1476,-10.9002 -4.7798,-23.2032 -8.0192,-34.4429 -1.9199,-11.7201 -1.1872,-24.0165 4.4695,-34.6672 5.9237,-13.8371 -12.9981,-8.9057 -17.3734,-1.6484 -12.9973,14.5694 -14.5798,35.3686 -12.9726,53.9783 2.6273,10.1304 -9.40001,20.9219 -18.29521,14.0239 -7.608,-4.7273 -10.8002,-13.1355 -16.3568,-20.1163 -5.9261,-9.3081 -10.9237,-19.0268 -17.0344,-28.1792 -5.4412,-8.9975 -11.6083,-17.4995 -18.8742,-25.1072 -4.7166,-7.1238 -9.1846,-19.0725 -18.7701,-19.8553 -13.9816,4.1267 -4.6155,18.5726 1.4514,25.4987 9.6394,16.3693 17.786,33.6876 26.9618,50.2242 -0.9793,12.9615 -10.6719,-2.9066 -13.3534,-7.1563 -5.4167,-8.5354 -10.937,-17.4331 -17.9636,-24.6072 -6.9355,-8.3732 -12.6336,-17.5419 -19.560497,-25.9777 -8.482,-9.36 -20.0789,7.7916 -9.7018,14.5377 9.813,14.0893 18.096897,29.1064 27.307997,43.5937 4.3142,7.7069 17.4288,15.2446 12.6141,24.7591 -11.2235,-6.0877 -20.0608,-16.0493 -29.734697,-24.3846 -9.5201,-8.561 -17.5207,-18.6495 -27.00321,-27.2136 -7.524,-3.8725 -15.1838,4.0052 -14.3811,11.6683 7.6118,12.1232 20.67291,19.9428 28.76491,31.8439 6.0189,6.6818 12.466,11.4225 17.707797,18.6166 2.6553,4.2605 11.9153,7.1029 10.4317,8.8548 -5.0319,-0.071 -11.720597,-2.3004 -14.987297,2.7559 -4.5406,3.3509 -1.0366,10.1776 -1.9684,14.9096 2.1791,8.9241 7.934397,16.396 9.032097,25.7529 5.0622,13.9361 11.9978,27.7895 24.2692,36.7752 14.2327,11.5232 27.4306,24.21411 39.0649,38.37161 6.7696,13.1304 18.3065,-3.2343 27.1319,-6.3641 5.3907,-3.3696 10.77041,-6.7565 16.14751,-10.1476 z"
       style="fill:#ffffff;fill-opacity:1;stroke:#ffffff;stroke-width:2;stroke-miterlimit:4;stroke-opacity:1;stroke-dasharray:none;stroke-dashoffset:0" />
  </g>
</svg>
