<?xml version="1.0" encoding="UTF-8" standalone="no"?>
<!-- Created with Inkscape (http://www.inkscape.org/) -->

<svg
   xmlns:dc="http://purl.org/dc/elements/1.1/"
   xmlns:cc="http://creativecommons.org/ns#"
   xmlns:rdf="http://www.w3.org/1999/02/22-rdf-syntax-ns#"
   xmlns:svg="http://www.w3.org/2000/svg"
   xmlns="http://www.w3.org/2000/svg"
   xmlns:sodipodi="http://sodipodi.sourceforge.net/DTD/sodipodi-0.dtd"
   xmlns:inkscape="http://www.inkscape.org/namespaces/inkscape"
   width="300"
   height="300"
   id="svg2"
   version="1.1"
   inkscape:version="0.48.2 r9819"
   sodipodi:docname="count_R3.svg">
  <title
     id="title2987">ладонь правой руки разогнуты три пальца</title>
  <sodipodi:namedview
     id="base"
     pagecolor="#818181"
     bordercolor="#666666"
     borderopacity="1.0"
     inkscape:pageopacity="1"
     inkscape:pageshadow="2"
     inkscape:zoom="0.9899495"
     inkscape:cx="222.35164"
     inkscape:cy="158.43877"
     inkscape:document-units="px"
     inkscape:current-layer="layer1"
     showgrid="false"
     inkscape:window-width="1024"
     inkscape:window-height="706"
     inkscape:window-x="-8"
     inkscape:window-y="-8"
     inkscape:window-maximized="1"
     inkscape:snap-page="true"
     showguides="true"
     inkscape:guide-bbox="true"
     guidecolor="#ebff00"
     guideopacity="0.49803922"
     inkscape:snap-object-midpoints="true"
     inkscape:snap-center="true" />
  <defs
     id="defs3">
    <style
       id="style5"
       type="text/css">
    @font-face {font-family: 'PT Sans'; 
	src: url('fonts/pts55f_w.eot'); 
	src: local('PT Sans'), url('fonts/PTS55F_W.woff') format('woff'),url('fonts/PTS55F_W.ttf') format('truetype');
	}

   </style>
  </defs>
  <metadata
     id="metadata7">
    <rdf:RDF>
      <cc:Work
         rdf:about="">
        <dc:format>image/svg+xml</dc:format>
        <dc:type
           rdf:resource="http://purl.org/dc/dcmitype/StillImage" />
        <dc:title>ладонь правой руки разогнуты 3 пальца</dc:title>
        <dc:date>2012-04-25</dc:date>
        <cc:license
           rdf:resource="http://creativecommons.org/licenses/publicdomain/" />
        <dc:language>ru-RU</dc:language>
        <dc:subject>
          <rdf:Bag>
            <rdf:li>ладонь</rdf:li>
            <rdf:li>ладонь правой руки</rdf:li>
            <rdf:li>система счета на пальцах</rdf:li>
            <rdf:li>счет на пальцах</rdf:li>
            <rdf:li>счет чисел</rdf:li>
            <rdf:li>десятичное число 3</rdf:li>
            <rdf:li>palm</rdf:li>
            <rdf:li>right hand palm</rdf:li>
            <rdf:li>account system on fingers</rdf:li>
            <rdf:li>the account on fingers</rdf:li>
            <rdf:li>account of numbers</rdf:li>
            <rdf:li>decimal number 3</rdf:li>
          </rdf:Bag>
        </dc:subject>
        <dc:coverage>арифметика числа счет на пальцах</dc:coverage>
        <dc:description>Система счета на пальцах. Образ десятичного числа 3.</dc:description>
        <dc:creator>
          <cc:Agent>
            <dc:title>formalldistort.org</dc:title>
          </cc:Agent>
        </dc:creator>
        <dc:rights>
          <cc:Agent>
            <dc:title>formalldistort.org</dc:title>
          </cc:Agent>
        </dc:rights>
        <dc:publisher>
          <cc:Agent>
            <dc:title>formalldistort.org</dc:title>
          </cc:Agent>
        </dc:publisher>
        <dc:identifier>http://www.formalldistort.org/svg/count_R3.svg</dc:identifier>
        <dc:source>http://www.l4soft.narod.ru/</dc:source>
        <dc:relation>http://www.l4soft.narod.ru/svg/download/count_R3.svg</dc:relation>
        <dc:contributor>
          <cc:Agent>
            <dc:title>http://www.iskazkigolos.narod.ru http://www.nashsever.narod.ru</dc:title>
          </cc:Agent>
        </dc:contributor>
      </cc:Work>
      <cc:License
         rdf:about="http://creativecommons.org/licenses/publicdomain/">
        <cc:permits
           rdf:resource="http://creativecommons.org/ns#Reproduction" />
        <cc:permits
           rdf:resource="http://creativecommons.org/ns#Distribution" />
        <cc:permits
           rdf:resource="http://creativecommons.org/ns#DerivativeWorks" />
      </cc:License>
    </rdf:RDF>
  </metadata>
  <g
     style="display:inline"
     transform="translate(0,-752.36217)"
     id="layer1"
     inkscape:groupmode="layer"
     inkscape:label="Layer 1">
    <rect
       y="752.36218"
       x="0"
       height="300"
       width="300"
       id="rect2984-1"
       style="fill:#00a6ff;fill-opacity:1;stroke:none;display:inline" />
    <text
       sodipodi:linespacing="125%"
       id="text2986-4-1"
       y="1047.3622"
       x="5"
       style="font-size:40px;font-style:normal;font-weight:normal;line-height:125%;letter-spacing:0px;word-spacing:0px;fill:#00c8ff;fill-opacity:1;stroke:none;display:inline;font-family:Sans"
       xml:space="preserve"><tspan
         style="font-size:16px;font-style:normal;font-variant:normal;font-weight:normal;font-stretch:normal;fill:#00c8ff;fill-opacity:1;font-family:PT Sans"
         y="1047.3622"
         x="5"
         id="tspan2988-0-7"
         sodipodi:role="line">count_R3.svg</tspan></text>
    <path
       inkscape:connector-curvature="0"
       id="path3840"
       d="m 204.45504,1014.0407 c 11.7377,-6.6019 23.5472,-13.0836 35.1588,-19.90464 -4.0644,-8.5789 -9.115,-17.28203 -12.95,-25.93463 -7.3587,-19.1266 1.9706,-39.1841 6.9696,-57.6785 4.3592,-11.4582 5.9638,-23.852 3.2898,-35.9078 -3.0711,-20.6646 -9.2034,-42.0723 -3.4054,-62.7973 6.0781,-8.2971 3.7029,-22.5925 -8.4861,-13.1318 -9.6547,7.0828 -15.7959,18.4938 -18.7365,29.8984 -2.1719,13.4484 -2.4881,27.1117 -2.0619,40.6872 -0.8844,12.3759 -14.6863,16.7073 -21.1937,5.3455 -15.4813,-20.3596 -23.18,-45.3536 -36.7397,-66.9617 -6.7522,-10.9944 -13.3381,-22.2984 -20.8338,-32.6811 -8.7922,-8.3254 -21.9567,7.2719 -12.4654,15.288 12.3956,20.1214 20.3892,42.487 30.4004,63.7967 5.572,10.5498 -6.8917,14.589 -10.842,4.0111 -15.5798,-22.4309 -36.033699,-40.7844 -53.700699,-61.4909 -7.2621,-10.1376 -26.2811,3.3605 -14.9547,12.2539 16.5473,17.4121 30.7948,36.769 45.640199,55.6052 5.1765,3.2271 10.8486,13.1133 -0.3125,10.1943 -4.3617,1.7778 -10.676499,5.4171 -9.281499,11.0795 0.364199,7.1574 1.881899,15.2544 -8.5263,12.5834 -9.3803,5.1234 -5.8805,24.0094 2.0743,27.2056 3.0802,10.4607 4.4068,22.2215 10.732699,31.8458 5.1442,11.6234 10.8713,23.26193 21.2206,31.18313 14.6968,10.7541 25.764,25.75924 38.566,38.66814 6.3298,12.3598 16.8284,-2.0929 25.4944,-4.8141 4.9808,-2.7816 9.9623,-5.5634 14.9434,-8.3434 z"
       style="fill:#ffffff;fill-opacity:1;stroke:#ffffff;stroke-width:2;stroke-miterlimit:4;stroke-opacity:1;stroke-dasharray:none;stroke-dashoffset:0" />
  </g>
</svg>
