<?xml version="1.0" encoding="UTF-8" standalone="no"?>
<!-- Created with Inkscape (http://www.inkscape.org/) -->

<svg
   xmlns:dc="http://purl.org/dc/elements/1.1/"
   xmlns:cc="http://creativecommons.org/ns#"
   xmlns:rdf="http://www.w3.org/1999/02/22-rdf-syntax-ns#"
   xmlns:svg="http://www.w3.org/2000/svg"
   xmlns="http://www.w3.org/2000/svg"
   xmlns:sodipodi="http://sodipodi.sourceforge.net/DTD/sodipodi-0.dtd"
   xmlns:inkscape="http://www.inkscape.org/namespaces/inkscape"
   width="300"
   height="300"
   id="svg2"
   version="1.1"
   inkscape:version="0.48.2 r9819"
   sodipodi:docname="count_L2.svg">
  <title
     id="title2987">ладонь левой руки разогнуты два пальца</title>
  <sodipodi:namedview
     id="base"
     pagecolor="#818181"
     bordercolor="#666666"
     borderopacity="1.0"
     inkscape:pageopacity="1"
     inkscape:pageshadow="2"
     inkscape:zoom="0.9899495"
     inkscape:cx="271.57453"
     inkscape:cy="189.99587"
     inkscape:document-units="px"
     inkscape:current-layer="layer1"
     showgrid="false"
     inkscape:window-width="1024"
     inkscape:window-height="706"
     inkscape:window-x="-8"
     inkscape:window-y="-8"
     inkscape:window-maximized="1"
     inkscape:snap-page="true"
     showguides="true"
     inkscape:guide-bbox="true"
     guidecolor="#ebff00"
     guideopacity="0.49803922" />
  <defs
     id="defs3">
    <style
       id="style5"
       type="text/css">
    @font-face {font-family: 'PT Sans'; 
	src: url('fonts/pts55f_w.eot'); 
	src: local('PT Sans'), url('fonts/PTS55F_W.woff') format('woff'),url('fonts/PTS55F_W.ttf') format('truetype');
	}

   </style>
  </defs>
  <metadata
     id="metadata7">
    <rdf:RDF>
      <cc:Work
         rdf:about="">
        <dc:format>image/svg+xml</dc:format>
        <dc:type
           rdf:resource="http://purl.org/dc/dcmitype/StillImage" />
        <dc:title>ладонь левой руки разогнуты два пальц</dc:title>
        <dc:date>2012-04-25</dc:date>
        <cc:license
           rdf:resource="http://creativecommons.org/licenses/publicdomain/" />
        <dc:language>ru-RU</dc:language>
        <dc:subject>
          <rdf:Bag>
            <rdf:li>ладонь</rdf:li>
            <rdf:li>ладонь левой руки</rdf:li>
            <rdf:li>система счета на пальцах</rdf:li>
            <rdf:li>счет на пальцах</rdf:li>
            <rdf:li>счет чисел</rdf:li>
            <rdf:li>десятичное число 2</rdf:li>
            <rdf:li>palm</rdf:li>
            <rdf:li>left hand palm</rdf:li>
            <rdf:li>account system on fingers</rdf:li>
            <rdf:li>the account on fingers</rdf:li>
            <rdf:li>account of numbers</rdf:li>
            <rdf:li>decimal number 2</rdf:li>
          </rdf:Bag>
        </dc:subject>
        <dc:coverage>арифметика числа счет на пальцах</dc:coverage>
        <dc:description>Система счета на пальцах. Образ десятичного числа 2.</dc:description>
        <dc:creator>
          <cc:Agent>
            <dc:title>formalldistort.org</dc:title>
          </cc:Agent>
        </dc:creator>
        <dc:rights>
          <cc:Agent>
            <dc:title>formalldistort.org</dc:title>
          </cc:Agent>
        </dc:rights>
        <dc:publisher>
          <cc:Agent>
            <dc:title>formalldistort.org</dc:title>
          </cc:Agent>
        </dc:publisher>
        <dc:identifier>http://www.formalldistort.org/svg/count_L2.svg</dc:identifier>
        <dc:source>http://www.l4soft.narod.ru/</dc:source>
        <dc:relation>http://www.l4soft.narod.ru/svg/download/count_L2.svg</dc:relation>
        <dc:contributor>
          <cc:Agent>
            <dc:title>http://www.iskazkigolos.narod.ru http://www.nashsever.narod.ru</dc:title>
          </cc:Agent>
        </dc:contributor>
      </cc:Work>
      <cc:License
         rdf:about="http://creativecommons.org/licenses/publicdomain/">
        <cc:permits
           rdf:resource="http://creativecommons.org/ns#Reproduction" />
        <cc:permits
           rdf:resource="http://creativecommons.org/ns#Distribution" />
        <cc:permits
           rdf:resource="http://creativecommons.org/ns#DerivativeWorks" />
      </cc:License>
    </rdf:RDF>
  </metadata>
  <g
     style="display:inline"
     transform="translate(0,-752.36217)"
     id="layer1"
     inkscape:groupmode="layer"
     inkscape:label="Layer 1">
    <rect
       y="752.36218"
       x="0"
       height="300"
       width="300"
       id="rect2984-1"
       style="fill:#00a6ff;fill-opacity:1;stroke:none;display:inline" />
    <text
       sodipodi:linespacing="125%"
       id="text2986-4-1"
       y="1047.3622"
       x="5"
       style="font-size:40px;font-style:normal;font-weight:normal;line-height:125%;letter-spacing:0px;word-spacing:0px;fill:#00c8ff;fill-opacity:1;stroke:none;display:inline;font-family:Sans"
       xml:space="preserve"><tspan
         style="font-size:16px;font-style:normal;font-variant:normal;font-weight:normal;font-stretch:normal;fill:#00c8ff;fill-opacity:1;font-family:PT Sans"
         y="1047.3622"
         x="5"
         id="tspan2988-0-7"
         sodipodi:role="line">count_L2.svg</tspan></text>
    <path
       inkscape:connector-curvature="0"
       id="path3823"
       d="m 106.31536,1022.5034 c -12.874003,-7.0602 -26.703803,-13.1977 -38.919603,-20.9961 8.3346,-15.29683 19.1486,-29.84633 23.7787,-46.98673 0.7262,-23.5544 -9.685,-45.5086 -14.3803,-68.1912 -1.2203,-15.7292 3.2836,-31.3046 3.0214,-47.0806 0.7028,-14.1336 0.2939,-28.9191 -6.9413,-41.5319 -7.5202,-9.9549 5.9441,-15.4387 12.5841,-7.4651 11.5654,8.5481 18.784503,22.4737 21.241003,36.5007 3.0746,12.0212 2.7717,24.5382 4.7124,36.6649 2.076,14.3381 18.8992,13.3572 23.1594,0.9711 13.2347,-16.8035 20.2029,-37.3869 31.927,-55.1758 6.9239,-10.4626 14.2986,-20.5773 21.1557,-31.0834 5.289,-7.5755 13.5794,-21.0604 23.6851,-11.272 7.0066,9.6027 -5.3446,19.5689 -9.7893,27.8638 -11.7858,19.42 -21.6152,39.9449 -32.55,59.8216 0.3241,11.105 11.8486,-10.6041 18.7881,-8.0206 12.4761,-0.6624 15.1801,14.2141 11.0508,23.1892 -2.5026,6.0701 -13.5547,17.3083 -11.6957,20.6509 9.2945,-6.4407 11.8336,-26.3426 25.424,-22.327 14.2614,2.704 0.6574,21.8147 10.2142,24.7204 5.1548,-0.8559 11.6923,3.2571 10.1123,9.0306 1.6711,9.2628 -4.1392,17.2812 -8.1084,24.7376 -1.3023,11.1925 -6.5675,21.1134 -12.5008,30.7451 -5.2117,12.1216 -13.3159,22.8154 -24.2066,30.3614 -12.8283,9.17123 -19.2521,23.94433 -29.2426,35.70823 -7.1718,7.44 -12.3893,25.2543 -24.3032,13.5532 -9.452,-4.7043 -18.8435,-9.5289 -28.2164,-14.3883 z"
       style="fill:#ffffff;fill-opacity:1;stroke:#ffffff;stroke-width:2;stroke-miterlimit:4;stroke-opacity:1;stroke-dasharray:none;stroke-dashoffset:0" />
  </g>
</svg>
