<?xml version="1.0" encoding="UTF-8" standalone="no"?>
<!-- Created with Inkscape (http://www.inkscape.org/) -->

<svg
   xmlns:dc="http://purl.org/dc/elements/1.1/"
   xmlns:cc="http://creativecommons.org/ns#"
   xmlns:rdf="http://www.w3.org/1999/02/22-rdf-syntax-ns#"
   xmlns:svg="http://www.w3.org/2000/svg"
   xmlns="http://www.w3.org/2000/svg"
   xmlns:sodipodi="http://sodipodi.sourceforge.net/DTD/sodipodi-0.dtd"
   xmlns:inkscape="http://www.inkscape.org/namespaces/inkscape"
   width="590"
   height="300"
   id="svg2"
   version="1.1"
   inkscape:version="0.48.2 r9819"
   sodipodi:docname="ellipse_004.svg">
  <title
     id="title3011">циклоида</title>
  <defs
     id="defs3">
    <style
       type="text/css"
       id="style5">
    @font-face {font-family: 'PT Sans'; 
	src: url('fonts/pts55f_w.eot'); 
	src: local('PT Sans'), url('fonts/PTS55F_W.woff') format('woff'),url('fonts/PTS55F_W.ttf') format('truetype');
	}

   </style>
  </defs>
  <sodipodi:namedview
     id="base"
     pagecolor="#818181"
     bordercolor="#666666"
     borderopacity="1.0"
     inkscape:pageopacity="1"
     inkscape:pageshadow="2"
     inkscape:zoom="0.98994949"
     inkscape:cx="249.03387"
     inkscape:cy="120.30866"
     inkscape:document-units="px"
     inkscape:current-layer="layer1"
     showgrid="false"
     inkscape:window-width="1024"
     inkscape:window-height="706"
     inkscape:window-x="-8"
     inkscape:window-y="-8"
     inkscape:window-maximized="1"
     inkscape:snap-page="true"
     showguides="true"
     inkscape:guide-bbox="true"
     guidecolor="#ebff00"
     guideopacity="0.49803922"
     inkscape:snap-global="false" />
  <metadata
     id="metadata7">
    <rdf:RDF>
      <cc:Work
         rdf:about="">
        <dc:format>image/svg+xml</dc:format>
        <dc:type
           rdf:resource="http://purl.org/dc/dcmitype/StillImage" />
        <dc:title>циклоида</dc:title>
        <dc:date>2012-04-25</dc:date>
        <cc:license
           rdf:resource="http://creativecommons.org/licenses/publicdomain/" />
        <dc:language>ru-RU</dc:language>
        <dc:subject>
          <rdf:Bag>
            <rdf:li>циклоида</rdf:li>
            <rdf:li>брахистохрона</rdf:li>
            <rdf:li>кривая скорейшего спуска</rdf:li>
			<rdf:li>cycloid </rdf:li>
            <rdf:li>curve of the fastest descent</rdf:li>
          </rdf:Bag>
        </dc:subject>
        <dc:coverage>геометрия, geometry</dc:coverage>
        <dc:description>циклоида</dc:description>
        <dc:creator>
          <cc:Agent>
            <dc:title>formalldistort.org</dc:title>
          </cc:Agent>
        </dc:creator>
        <dc:rights>
          <cc:Agent>
            <dc:title>formalldistort.org</dc:title>
          </cc:Agent>
        </dc:rights>
        <dc:publisher>
          <cc:Agent>
            <dc:title>formalldistort.org</dc:title>
          </cc:Agent>
        </dc:publisher>
        <dc:identifier>http://www.formalldistort.org/svg/ellipse_004.svg</dc:identifier>
        <dc:source>http://www.l4soft.narod.ru/</dc:source>
        <dc:relation>http://www.l4soft.narod.ru/svg/download/ellipse_004.svg</dc:relation>
        <dc:contributor>
          <cc:Agent>
            <dc:title>http://www.iskazkigolos.narod.ru http://www.nashsever.narod.ru</dc:title>
          </cc:Agent>
        </dc:contributor>
      </cc:Work>
      <cc:License
         rdf:about="http://creativecommons.org/licenses/publicdomain/">
        <cc:permits
           rdf:resource="http://creativecommons.org/ns#Reproduction" />
        <cc:permits
           rdf:resource="http://creativecommons.org/ns#Distribution" />
        <cc:permits
           rdf:resource="http://creativecommons.org/ns#DerivativeWorks" />
      </cc:License>
    </rdf:RDF>
  </metadata>
  <g
     inkscape:label="Layer 1"
     inkscape:groupmode="layer"
     id="layer1"
     transform="translate(0,-752.36217)"
     style="display:inline">
    <text
       xml:space="preserve"
       style="font-size:40px;font-style:normal;font-weight:normal;line-height:125%;letter-spacing:0px;word-spacing:0px;fill:#00a6ff;fill-opacity:1;stroke:none;display:inline;font-family:Sans"
       x="5"
       y="1047.3622"
       id="text2986-4-1"
       sodipodi:linespacing="125%"><tspan
         sodipodi:role="line"
         id="tspan2988-0-7"
         x="5"
         y="1047.3622"
         style="font-size:16px;font-style:normal;font-variant:normal;font-weight:normal;font-stretch:normal;fill:#00a6ff;fill-opacity:1;font-family:PT Sans">ellipse_004.svg</tspan></text>
    <rect
       style="fill:#00a6ff;fill-opacity:1;stroke:none;display:inline"
       id="rect2984-1"
       width="290"
       height="290"
       x="295"
       y="757.36218" />
    <path
       id="path3021"
       title="t-sin(t) 1-cos(t)"
       d="m 362.37165,899.49837 c 0,-2.2e-4 1.3e-4,-0.22666 0.0489,-0.67406 0.0488,-0.4474 0.14667,-1.11658 0.33963,-1.99068 0.19296,-0.8741 0.4817,-1.95429 0.90748,-3.21422 0.42577,-1.25994 0.98953,-2.7006 1.72589,-4.28746 0.73636,-1.58685 1.64644,-3.32064 2.75663,-5.16021 1.11017,-1.83958 2.4217,-3.78543 3.95146,-5.7917 1.52974,-2.00628 3.27906,-4.07319 5.25452,-6.15236 1.97547,-2.07917 4.17845,-4.17051 6.60492,-6.22535 2.42648,-2.05484 5.07776,-4.07281 7.93948,-6.00724 2.86169,-1.93444 5.935,-3.78468 9.19579,-5.50826 3.26078,-1.72356 6.71007,-3.31957 10.31512,-4.75169 3.60507,-1.43211 7.36672,-2.69925 11.24517,-3.77295 3.87844,-1.07369 7.87423,-1.95272 11.94237,-2.61779 4.06813,-0.66508 8.20891,-1.11488 12.37419,-1.34024 4.16528,-0.22535 8.35507,-0.2249 12.52041,0 4.16533,0.22491 8.30591,0.67559 12.37419,1.34024 4.06827,0.66464 8.0637,1.54448 11.94238,2.61779 3.87867,1.07331 7.63978,2.34116 11.24516,3.77295 3.60537,1.43179 7.05397,3.02838 10.31513,4.75169 3.26116,1.72332 6.33367,3.57399 9.1958,5.50826 2.86211,1.93426 5.51254,3.95247 7.93946,6.00724 2.42693,2.05477 4.62901,4.14616 6.60492,6.22535 1.97592,2.07919 3.72435,4.14596 5.25454,6.15236 1.53018,2.00639 2.84087,3.95191 3.95145,5.7917 1.11058,1.83978 2.01992,3.57307 2.75662,5.16021 0.7367,1.58715 1.29984,3.02716 1.72589,4.28746 0.42606,1.26029 0.71433,2.3397 0.90748,3.21422 0.19315,0.87451 0.29075,1.54284 0.33963,1.99068 0.0489,0.44784 0.049,0.67384 0.049,0.67406"
       style="fill:none;stroke:#ffffff;stroke-width:1.99999976;stroke-miterlimit:4;stroke-opacity:1;stroke-dasharray:none;display:inline"
       inkscape:connector-curvature="0"
       sodipodi:nodetypes="cssssssssssssssssssssssssssssc" />
    <path
       inkscape:connector-curvature="0"
       style="fill:none;stroke:#ffffff;stroke-width:2;stroke-miterlimit:4;stroke-opacity:1;stroke-dasharray:2, 2;stroke-dashoffset:0;display:inline"
       d="m 362.66227,898.6523 c -16.06643,0 -29.09084,-12.98362 -29.09084,-28.99972 0,-16.01611 13.02441,-28.99973 29.09084,-28.99973 16.06643,0 29.09084,12.98362 29.09084,28.99973 0,16.0161 -13.02441,28.99972 -29.09084,28.99972 z"
       id="path3047" />
    <path
       style="fill:none;stroke:#ffffff;stroke-width:1px;stroke-linecap:butt;stroke-linejoin:miter;stroke-opacity:1;display:inline"
       d="m 362.66228,869.23229 0,28.99973"
       id="path3049"
       inkscape:connector-curvature="0" />
    <path
       id="path3021-8"
       title="t-sin(t) 1-cos(t)"
       d="m 362.37165,898.99421 c 0,2.2e-4 1.3e-4,0.22667 0.0489,0.67406 0.0488,0.44741 0.14667,1.11659 0.33963,1.99069 0.19296,0.8741 0.4817,1.95428 0.90748,3.21422 0.42577,1.25993 0.98953,2.7006 1.72589,4.28745 0.73636,1.58686 1.64644,3.32065 2.75663,5.16022 1.11017,1.83958 2.4217,3.78542 3.95146,5.7917 1.52974,2.00628 3.27906,4.07319 5.25452,6.15236 1.97547,2.07917 4.17845,4.17051 6.60492,6.22535 2.42648,2.05484 5.07776,4.07281 7.93948,6.00724 2.86169,1.93444 5.935,3.78468 9.19579,5.50826 3.26078,1.72356 6.71007,3.31957 10.31512,4.75169 3.60507,1.43211 7.36672,2.69925 11.24517,3.77294 3.87844,1.0737 7.87423,1.95273 11.94237,2.6178 4.06813,0.66507 8.20891,1.11488 12.37419,1.34023 4.16528,0.22536 8.35507,0.22491 12.52041,0 4.16533,-0.2249 8.30591,-0.67558 12.37419,-1.34023 4.06827,-0.66465 8.0637,-1.54448 11.94238,-2.6178 3.87867,-1.0733 7.63978,-2.34116 11.24516,-3.77294 3.60537,-1.4318 7.05397,-3.02838 10.31513,-4.75169 3.26116,-1.72332 6.33367,-3.57399 9.1958,-5.50826 2.86211,-1.93427 5.51254,-3.95247 7.93946,-6.00724 2.42693,-2.05477 4.62901,-4.14616 6.60492,-6.22535 1.97592,-2.07919 3.72435,-4.14596 5.25454,-6.15236 1.53018,-2.0064 2.84087,-3.95191 3.95145,-5.7917 1.11058,-1.83978 2.01992,-3.57307 2.75662,-5.16022 0.7367,-1.58714 1.29984,-3.02716 1.72589,-4.28745 0.42606,-1.2603 0.71433,-2.3397 0.90748,-3.21422 0.19315,-0.87451 0.29075,-1.54284 0.33963,-1.99069 0.0489,-0.44783 0.049,-0.67384 0.049,-0.67406"
       style="fill:none;stroke:#ffffff;stroke-width:1.99999976;stroke-miterlimit:4;stroke-opacity:1;stroke-dasharray:none;display:inline"
       inkscape:connector-curvature="0"
       sodipodi:nodetypes="cssssssssssssssssssssssssssssc" />
    <path
       style="fill:none;stroke:#ffffff;stroke-width:1px;stroke-linecap:butt;stroke-linejoin:miter;stroke-opacity:1;display:inline"
       d="m 322.39222,898.81898 239.04444,0"
       id="path3975"
       inkscape:connector-curvature="0"
       sodipodi:nodetypes="cc" />
    <text
       xml:space="preserve"
       style="font-size:40px;font-style:normal;font-weight:normal;line-height:125%;letter-spacing:0px;word-spacing:0px;fill:#ffffff;fill-opacity:1;stroke:none;display:inline;font-family:Sans"
       x="339.21579"
       y="881.94318"
       id="text2986-4-17"
       sodipodi:linespacing="125%"><tspan
         sodipodi:role="line"
         id="tspan2988-0-40"
         x="339.21579"
         y="881.94318"
         style="font-size:16px;font-style:normal;font-variant:normal;font-weight:normal;font-stretch:normal;fill:#ffffff;fill-opacity:1;font-family:PT Sans">r=1</tspan></text>
    <text
       xml:space="preserve"
       style="font-size:40px;font-style:normal;font-weight:normal;line-height:125%;letter-spacing:0px;word-spacing:0px;fill:#ffffff;fill-opacity:1;stroke:none;display:inline;font-family:Sans"
       x="42.898472"
       y="896.33789"
       id="text2986-4-94"
       sodipodi:linespacing="125%"><tspan
         sodipodi:role="line"
         id="tspan2988-0-8"
         x="42.898472"
         y="896.33789"
         style="font-size:16px;font-style:normal;font-variant:normal;font-weight:normal;font-stretch:normal;fill:#ffffff;fill-opacity:1;font-family:PT Sans">циклоида</tspan><tspan
         sodipodi:role="line"
         x="42.898472"
         y="916.33789"
         style="font-size:16px;font-style:normal;font-variant:normal;font-weight:normal;font-stretch:normal;fill:#ffffff;fill-opacity:1;font-family:PT Sans"
         id="tspan3051" /><tspan
         sodipodi:role="line"
         x="42.898472"
         y="936.33789"
         style="font-size:16px;font-style:normal;font-variant:normal;font-weight:normal;font-stretch:normal;fill:#ffffff;fill-opacity:1;font-family:PT Sans"
         id="tspan3053">параметрическое уравнение:</tspan><tspan
         sodipodi:role="line"
         x="42.898472"
         y="956.33789"
         style="font-size:16px;font-style:normal;font-variant:normal;font-weight:normal;font-stretch:normal;fill:#ffffff;fill-opacity:1;font-family:PT Sans"
         id="tspan3055">x=r*t-r*sin(t) = 1*t-1*sin(t);</tspan><tspan
         sodipodi:role="line"
         x="42.898472"
         y="976.33789"
         style="font-size:16px;font-style:normal;font-variant:normal;font-weight:normal;font-stretch:normal;fill:#ffffff;fill-opacity:1;font-family:PT Sans"
         id="tspan3057">y=r-r*cos(t) = 1-1*cos(t);</tspan></text>
  </g>
</svg>
