<?xml version="1.0" encoding="UTF-8" standalone="no"?>
<!-- Created with Inkscape (http://www.inkscape.org/) -->

<svg
   xmlns:dc="http://purl.org/dc/elements/1.1/"
   xmlns:cc="http://creativecommons.org/ns#"
   xmlns:rdf="http://www.w3.org/1999/02/22-rdf-syntax-ns#"
   xmlns:svg="http://www.w3.org/2000/svg"
   xmlns="http://www.w3.org/2000/svg"
   xmlns:sodipodi="http://sodipodi.sourceforge.net/DTD/sodipodi-0.dtd"
   xmlns:inkscape="http://www.inkscape.org/namespaces/inkscape"
   width="1024"
   height="768"
   id="svg2"
   version="1.1"
   inkscape:version="0.48.2 r9819"
   sodipodi:docname="рисунок.svg">
  <defs
     id="defs4">
    <linearGradient
       id="linearGradient3779">
      <stop
         style="stop-color:#9a9a9a;stop-opacity:1;"
         offset="0"
         id="stop3781" />
      <stop
         id="stop3789"
         offset="0.43902439"
         style="stop-color:#7f7f7f;stop-opacity:0.5;" />
      <stop
         style="stop-color:#20ff15;stop-opacity:1;"
         offset="1"
         id="stop3783" />
    </linearGradient>
  </defs>
  <sodipodi:namedview
     id="base"
     pagecolor="#000000"
     bordercolor="#666666"
     borderopacity="1.0"
     inkscape:pageopacity="0"
     inkscape:pageshadow="2"
     inkscape:zoom="0.35"
     inkscape:cx="495.42254"
     inkscape:cy="491.97139"
     inkscape:document-units="px"
     inkscape:current-layer="layer1"
     showgrid="false"
     width="1024px"
     inkscape:window-width="1024"
     inkscape:window-height="706"
     inkscape:window-x="-8"
     inkscape:window-y="-8"
     inkscape:window-maximized="1"
     inkscape:showpageshadow="false"
     showguides="true"
     inkscape:guide-bbox="true"
     showborder="false"
     inkscape:snap-global="true"
     inkscape:snap-bbox="true"
     inkscape:snap-bbox-midpoints="true">
    <sodipodi:guide
       orientation="1,0"
       position="0,0"
       id="guide3755" />
    <sodipodi:guide
       orientation="0,1"
       position="0,400"
       id="guide3757" />
    <sodipodi:guide
       orientation="1,0"
       position="400,0"
       id="guide3759" />
    <sodipodi:guide
       orientation="1,0"
       position="200,0"
       id="guide3761" />
    <sodipodi:guide
       orientation="0,1"
       position="0,300"
       id="guide3763" />
    <sodipodi:guide
       orientation="0,1"
       position="0,500"
       id="guide3765" />
    <sodipodi:guide
       orientation="0,1"
       position="0,600"
       id="guide3769" />
    <sodipodi:guide
       orientation="1,0"
       position="100,0"
       id="guide3773" />
    <sodipodi:guide
       orientation="0,1"
       position="0,550"
       id="guide3777" />
    <sodipodi:guide
       orientation="0,1"
       position="0,650"
       id="guide3813" />
    <sodipodi:guide
       orientation="1,0"
       position="1200,0"
       id="guide3817" />
    <sodipodi:guide
       orientation="1,0"
       position="1000,0"
       id="guide3819" />
    <sodipodi:guide
       orientation="1,0"
       position="600,0"
       id="guide3879" />
    <sodipodi:guide
       orientation="0,1"
       position="0,800"
       id="guide3946" />
    <sodipodi:guide
       orientation="0,1"
       position="0,0"
       id="guide3948" />
    <sodipodi:guide
       orientation="1,0"
       position="-200,800"
       id="guide3950" />
    <sodipodi:guide
       orientation="1,0"
       position="1400,0"
       id="guide3952" />
    <sodipodi:guide
       orientation="1,0"
       position="-100,0"
       id="guide3974" />
    <sodipodi:guide
       orientation="1,0"
       position="1300,0"
       id="guide3976" />
    <sodipodi:guide
       orientation="1,0"
       position="500,0"
       id="guide3051" />
    <sodipodi:guide
       orientation="0,1"
       position="0,-400"
       id="guide3880" />
    <sodipodi:guide
       orientation="0,1"
       position="600,1100"
       id="guide3056" />
    <sodipodi:guide
       orientation="0,1"
       position="0,1500"
       id="guide3071" />
    <sodipodi:guide
       orientation="0,1"
       position="0,1300"
       id="guide3075" />
    <sodipodi:guide
       orientation="0,1"
       position="0,1400"
       id="guide3077" />
    <sodipodi:guide
       orientation="1,0"
       position="300,0"
       id="guide3069" />
    <sodipodi:guide
       orientation="1,0"
       position="900,0"
       id="guide3078" />
    <sodipodi:guide
       orientation="0,1"
       position="0,-600"
       id="guide3057" />
  </sodipodi:namedview>
  <metadata
     id="metadata7">
    <rdf:RDF>
      <cc:Work
         rdf:about="">
        <dc:format>image/svg+xml</dc:format>
        <dc:type
           rdf:resource="http://purl.org/dc/dcmitype/StillImage" />
        <dc:title />
      </cc:Work>
    </rdf:RDF>
  </metadata>
  <g
     inkscape:label="Layer 1"
     inkscape:groupmode="layer"
     id="layer1"
     transform="translate(0,-284.36224)"
     style="display:inline">
    <path
       sodipodi:type="arc"
       style="fill:none;stroke:#000000;stroke-width:7;stroke-miterlimit:4;stroke-opacity:1;stroke-dasharray:none"
       id="path3767"
       sodipodi:cx="200"
       sodipodi:cy="368"
       sodipodi:rx="200"
       sodipodi:ry="100"
       d="M 400,368 C 400,423.22847 310.45695,468 200,468 89.54305,468 0,423.22847 0,368 0,312.77153 89.54305,268 200,268 c 110.45695,0 200,44.77153 200,100 z"
       transform="translate(0,284.36224)" />
    <path
       sodipodi:type="arc"
       style="fill:#0007fe;fill-opacity:1;stroke:#000000;stroke-width:7;stroke-miterlimit:4;stroke-opacity:1;stroke-dasharray:none"
       id="path3775"
       sodipodi:cx="200"
       sodipodi:cy="368"
       sodipodi:rx="100"
       sodipodi:ry="100"
       d="m 300,368 c 0,55.22847 -44.77153,100 -100,100 -55.22847,0 -100,-44.77153 -100,-100 0,-55.22847 44.77153,-100 100,-100 55.22847,0 100,44.77153 100,100 z"
       transform="translate(0,284.36224)" />
    <path
       sodipodi:type="star"
       style="fill:#0afcff;fill-opacity:1;stroke:none"
       id="path3809"
       sodipodi:sides="180"
       sodipodi:cx="200"
       sodipodi:cy="368"
       sodipodi:r1="96.858826"
       sodipodi:r2="30.026236"
       sodipodi:arg1="-0.52359878"
       sodipodi:arg2="-0.50614549"
       inkscape:flatsided="false"
       inkscape:rounded="0"
       inkscape:randomized="0.151"
       d="m 279.92099,310.4043 -57.82772,36.6796 71.22877,-13.67713 -62.08979,25.36612 70.26891,-35.5741 -75.53359,39.08055 55.74144,-47.93269 -60.90377,49.68631 62.70906,-31.35811 -51.38904,33.76563 54.13095,-17.47533 -45.86578,4.18207 44.50843,-1.03068 -50.62022,1.61197 44.39702,-8.21253 -51.95887,28.65375 53.46309,-34.91734 -52.46084,31.52124 60.20293,-27.07631 -47.51315,24.31736 43.53003,-28.21435 -61.51439,34.88318 74.81414,-6.18758 -56.59321,-13.95588 58.67388,-10.39238 -72.7345,12.89722 55.49765,-3.80692 -59.39202,1.83702 62.82488,0.0886 -42.10721,20.85484 40.69325,-17.22233 -41.15048,0.002 42.2615,23.40344 -62.93025,-27.17649 88.95291,33.59949 -84.95223,-28.84215 73.19361,4.09003 -59.08877,7.42821 57.19156,-0.27644 -75.37486,-10.90986 61.27919,37.26306 -43.20169,-14.85359 47.38991,4.21062 -60.05335,-22.78519 52.5521,15.89307 -53.4772,-5.81595 52.12445,8.47202 -44.49486,0.72589 50.95702,19.60128 -44.78785,-32.5682 45.32295,19.81022 -53.5439,-21.86018 51.02213,35.84558 -62.25089,-22.25098 60.62059,15.69392 -55.44038,-9.46172 75.41881,19.96736 -70.09392,-16.53589 62.10767,15.13511 -71.14222,-37.23231 56.97441,35.31202 -46.4473,-27.9541 59.43653,30.1401 -76.91954,-26.50401 59.71876,27.21243 -39.46801,-15.20197 45.26598,21.40551 -59.56128,-14.38516 57.50056,29.5869 -68.12928,-34.56303 51.6492,27.41891 -39.53156,-22.10002 46.49897,20.69078 -52.44685,-30.85889 63.44477,59.25156 -72.74308,-67.85295 67.19466,61.71177 -62.18307,-41.7915 57.95928,45.17096 -38.60721,-55.94453 17.25709,39.77436 -24.19733,-30.70752 46.07245,30.64191 -64.76875,-31.7456 45.27111,39.05557 -28.60164,-55.05932 42.46266,62.00288 -63.64615,-41.64119 59.34653,34.13517 -55.1776,-49.95941 28.4337,62.44412 -13.41876,-68.86079 31.95775,62.00417 -32.40185,-49.11276 27.94881,56.98605 -42.03517,-50.16001 25.23518,64.49711 -26.8957,-67.25416 23.03377,52.38949 -30.6893,-49.06384 38.8192,56.17762 -26.16287,-59.90974 20.49079,59.40931 -29.9101,-73.75297 35.68224,86.73261 -27.2832,-61.44969 10.11228,48.56352 -23.4223,-70.0848 25.98375,84.98347 -12.63879,-83.04413 16.56634,85.06601 -27.45351,-82.53438 6.7148,80.96169 -12.31264,-84.93383 22.74127,77.26388 -10.149,-68.0861 -6.65097,70.46119 2.92915,-81.65086 2.52018,83.64883 2.17532,-73.6281 -3.0392,70.28891 7.74537,-70.3264 -27.84469,62.14108 3.31141,-72.2368 2.13604,90.17685 23.37845,-88.15054 -10.98632,91.36007 -5.66431,-82.60479 -12.19598,60.74217 6.56991,-54.5776 1.88254,76.14457 16.47507,-90.06949 -41.79608,80.98293 25.84734,-78.46243 -23.34233,83.44555 10.01443,-82.29347 2.01333,55.92221 6.39042,-57.33128 -29.91763,59.7361 20.46728,-54.48081 3.00852,70.51567 9.6431,-78.10186 -30.80032,70.65065 23.10339,-60.61555 -27.05281,54.96106 25.37818,-67.98214 -13.00489,68.33677 28.12098,-48.25384 -32.70009,62.586 32.23341,-59.88673 -43.05774,39.4407 28.82789,-60.06423 -26.41639,51.87064 30.55804,-51.89952 -34.93668,52.35961 42.94717,-48.04225 -57.49174,53.54177 44.88068,-66.82687 -35.28406,70.59149 45.78079,-65.08421 -53.28781,67.15479 46.32029,-71.78054 -38.5216,47.13733 28.56679,-31.97891 -32.92229,30.66066 37.91131,-21.40455 -43.61873,27.30203 34.2715,-52.48683 -52.64818,46.39332 46.62503,-49.81091 -38.89746,41.28909 50.97653,-39.8995 -38.36518,37.84275 27.67342,-39.70634 -29.84891,49.01493 44.78052,-36.6025 -68.41925,48.21956 59.3716,-40.06704 -47.51388,23.48674 60.17882,-20.41433 -76.57738,13.58104 57.82772,-36.6796 -41.97741,42.9285 62.0898,-25.36612 -70.26891,6.32273 46.28222,-9.82919 -55.74144,18.68133 60.90377,-20.43495 -62.70906,31.35811 80.64041,-33.76563 -83.38232,17.47533 75.11715,-33.43343 -73.7598,30.28205 79.87159,-30.86334 -73.64839,37.46389 51.95887,-28.65375 -53.46309,5.66598 52.46084,-2.26987 -60.202932,-2.17506 76.764522,4.93401 -72.7814,-1.03703 61.51439,-5.63181 -74.814139,6.18758 85.844569,-15.29548 -58.67387,10.39238 43.48313,-12.89722 -55.49765,3.80692 59.39202,-1.83702 -62.82488,-0.0886 71.35858,8.39652 -69.94462,-12.02903 70.40185,-0.002 -71.51287,5.84792 62.93025,-2.07487 -59.70155,-4.34813 55.70087,-0.40921 -43.94225,-4.09003 59.08878,-7.42821 -86.442931,0.27644 75.374861,10.90986 -61.27919,-8.01169 72.45306,14.85358 -76.641278,-33.46198 60.053348,22.78519 -52.5521,-15.89307 53.4772,5.81595 -52.12445,-8.47202 73.74623,28.52547 -80.20839,-19.60127 74.03921,3.31683 -74.5743,-19.81022 82.79526,21.86018 -80.2735,-35.84558 62.25089,51.50234 -60.62059,-44.94528 55.44038,38.71309 -46.16744,-49.21873 70.09392,45.78725 -62.10767,-44.38647 41.89086,37.23231 -56.97442,-35.31202 75.69867,27.9541 -59.43653,-30.1401 47.66818,26.50401 -59.71877,-27.21243 68.71938,44.45333 -45.26598,-50.65687 30.30991,43.63653 -28.2492,-29.58691 38.87792,34.56304 -51.6492,-56.67029 39.53156,51.35139 -46.49897,-49.94214 52.44685,60.11026 -34.19341,-59.25157 43.49173,38.60159 -37.9433,-32.46041 32.9317,41.7915 -28.70792,-45.17095 38.60722,26.69316 -46.50846,-39.77436 53.44869,59.95889 -46.07244,-59.89328 35.51739,60.99696 -45.27112,-68.30693 57.853,55.05932 -42.46265,-62.00288 34.39478,70.89255 -30.09517,-63.38653 25.92624,49.95941 -28.4337,-62.44412 42.67013,68.86079 -31.95775,-62.00417 32.40185,49.11276 -27.94881,-56.98605 12.7838,79.41138 -25.23517,-64.49712 26.89569,67.25417 -23.03377,-81.64086 30.6893,78.31521 -9.56783,-85.42899 -3.08849,89.1611 -20.4908,-88.66067 29.9101,73.75297 -6.43087,-57.48124 -1.96817,61.44969 -10.11228,-77.81489 23.4223,70.0848 -25.98375,-55.7321 41.89016,53.79276 -16.56634,-55.81465 -1.79786,53.28302 -6.7148,-51.71032 12.31264,55.68246 6.5101,-77.26388 10.149,68.0861 -22.6004,-41.20982 -2.92914,52.39949 -2.52019,-54.39747 27.07604,44.37674 3.0392,-70.28891 -7.74536,70.3264 -1.40668,-62.14108 -3.31141,72.2368 -2.13604,-60.92549 5.87292,58.89918 10.98631,-62.1087 -23.58705,53.35342 12.19599,-60.74217 -6.56992,83.82897 27.36883,-76.14457 -16.47508,60.81812 12.54472,-51.73156 -25.84734,49.21106 23.34233,-54.19418 -10.01443,53.0421 27.23804,-55.92221 -35.64179,57.33128 29.91763,-59.7361 -20.46728,54.48081 26.24285,-41.26431 -38.89446,48.8505 30.80031,-41.39928 -23.10339,60.61554 27.05281,-84.21242 -25.37818,67.98214 42.25626,-68.33678 -28.12098,77.50521 32.70008,-62.58599 -32.23341,59.88673 13.80638,-68.69207 -28.82789,60.06423 55.66775,-51.87064 -59.8094,51.89952 64.18805,-52.35961 -42.94717,48.04225 28.24037,-53.54177 -44.88068,66.82687 64.53543,-41.34013 -45.7808,35.83285 24.03645,-37.90342 -17.06893,42.52917 38.52161,-47.13734 -57.81816,61.23029 62.17365,-59.91203 -67.16267,50.65592 72.87009,-56.5534 -63.52286,52.48683 52.64818,-46.39332 -46.62503,49.81091 38.89746,-41.28909 -50.97653,39.89949 67.61654,-37.84274 -56.92478,39.70634 59.10028,-49.01493 -44.78053,65.85386 39.1679,-48.21955 -59.37161,40.06704 76.76525,-52.73811 -60.17882,49.6657 z"
       transform="translate(0,284.36224)"
       inkscape:transform-center-y="0.019395636" />
    <path
       transform="matrix(0.3236715,0,0,0.3236715,135.2657,533.25113)"
       sodipodi:type="arc"
       style="fill:#000000;fill-opacity:1;stroke:#000000;stroke-width:7;stroke-miterlimit:4;stroke-opacity:1;stroke-dasharray:none"
       id="path3775-1"
       sodipodi:cx="200"
       sodipodi:cy="368"
       sodipodi:rx="100"
       sodipodi:ry="100"
       d="m 300,368 c 0,55.22847 -44.77153,100 -100,100 -55.22847,0 -100,-44.77153 -100,-100 0,-55.22847 44.77153,-100 100,-100 55.22847,0 100,44.77153 100,100 z" />
    <path
       style="fill:#26492c;fill-opacity:1;stroke:#000000;stroke-width:1px;stroke-linecap:butt;stroke-linejoin:miter;stroke-opacity:1"
       d="m 0,502.36224 c 0,0 131.28157,-50 200,-50 68.71843,0 200,0 200,0 l 0,-50 c 0,0 -131.28157,0 -200,0 -68.71843,0 -200,50 -200,50 z"
       id="path3815"
       inkscape:connector-curvature="0"
       sodipodi:nodetypes="czcczcc" />
    <path
       transform="matrix(-1,0,0,1,1200,284.36224)"
       sodipodi:type="arc"
       style="fill:none;stroke:#000000;stroke-width:7;stroke-miterlimit:4;stroke-opacity:1;stroke-dasharray:none"
       id="path3767-5"
       sodipodi:cx="200"
       sodipodi:cy="368"
       sodipodi:rx="200"
       sodipodi:ry="100"
       d="M 400,368 C 400,423.22847 310.45695,468 200,468 89.54305,468 0,423.22847 0,368 0,312.77153 89.54305,268 200,268 c 110.45695,0 200,44.77153 200,100 z"
       inkscape:transform-center-x="-400"
       inkscape:transform-center-y="100" />
    <path
       transform="matrix(-1,0,0,1,1200,284.36224)"
       sodipodi:type="arc"
       style="fill:#0007fe;fill-opacity:1;stroke:#000000;stroke-width:7;stroke-miterlimit:4;stroke-opacity:1;stroke-dasharray:none"
       id="path3775-5"
       sodipodi:cx="200"
       sodipodi:cy="368"
       sodipodi:rx="100"
       sodipodi:ry="100"
       d="m 300,368 c 0,55.22847 -44.77153,100 -100,100 -55.22847,0 -100,-44.77153 -100,-100 0,-55.22847 44.77153,-100 100,-100 55.22847,0 100,44.77153 100,100 z"
       inkscape:transform-center-x="-400"
       inkscape:transform-center-y="100" />
    <path
       transform="matrix(-1,0,0,1,1200,284.36224)"
       sodipodi:type="star"
       style="fill:#0afcff;fill-opacity:1;stroke:none"
       id="path3809-1"
       sodipodi:sides="180"
       sodipodi:cx="200"
       sodipodi:cy="368"
       sodipodi:r1="96.858826"
       sodipodi:r2="30.026236"
       sodipodi:arg1="-0.52359878"
       sodipodi:arg2="-0.50614549"
       inkscape:flatsided="false"
       inkscape:rounded="0"
       inkscape:randomized="0.151"
       d="m 279.92099,310.4043 -57.82772,36.6796 71.22877,-13.67713 -62.08979,25.36612 70.26891,-35.5741 -75.53359,39.08055 55.74144,-47.93269 -60.90377,49.68631 62.70906,-31.35811 -51.38904,33.76563 54.13095,-17.47533 -45.86578,4.18207 44.50843,-1.03068 -50.62022,1.61197 44.39702,-8.21253 -51.95887,28.65375 53.46309,-34.91734 -52.46084,31.52124 60.20293,-27.07631 -47.51315,24.31736 43.53003,-28.21435 -61.51439,34.88318 74.81414,-6.18758 -56.59321,-13.95588 58.67388,-10.39238 -72.7345,12.89722 55.49765,-3.80692 -59.39202,1.83702 62.82488,0.0886 -42.10721,20.85484 40.69325,-17.22233 -41.15048,0.002 42.2615,23.40344 -62.93025,-27.17649 88.95291,33.59949 -84.95223,-28.84215 73.19361,4.09003 -59.08877,7.42821 57.19156,-0.27644 -75.37486,-10.90986 61.27919,37.26306 -43.20169,-14.85359 47.38991,4.21062 -60.05335,-22.78519 52.5521,15.89307 -53.4772,-5.81595 52.12445,8.47202 -44.49486,0.72589 50.95702,19.60128 -44.78785,-32.5682 45.32295,19.81022 -53.5439,-21.86018 51.02213,35.84558 -62.25089,-22.25098 60.62059,15.69392 -55.44038,-9.46172 75.41881,19.96736 -70.09392,-16.53589 62.10767,15.13511 -71.14222,-37.23231 56.97441,35.31202 -46.4473,-27.9541 59.43653,30.1401 -76.91954,-26.50401 59.71876,27.21243 -39.46801,-15.20197 45.26598,21.40551 -59.56128,-14.38516 57.50056,29.5869 -68.12928,-34.56303 51.6492,27.41891 -39.53156,-22.10002 46.49897,20.69078 -52.44685,-30.85889 63.44477,59.25156 -72.74308,-67.85295 67.19466,61.71177 -62.18307,-41.7915 57.95928,45.17096 -38.60721,-55.94453 17.25709,39.77436 -24.19733,-30.70752 46.07245,30.64191 -64.76875,-31.7456 45.27111,39.05557 -28.60164,-55.05932 42.46266,62.00288 -63.64615,-41.64119 59.34653,34.13517 -55.1776,-49.95941 28.4337,62.44412 -13.41876,-68.86079 31.95775,62.00417 -32.40185,-49.11276 27.94881,56.98605 -42.03517,-50.16001 25.23518,64.49711 -26.8957,-67.25416 23.03377,52.38949 -30.6893,-49.06384 38.8192,56.17762 -26.16287,-59.90974 20.49079,59.40931 -29.9101,-73.75297 35.68224,86.73261 -27.2832,-61.44969 10.11228,48.56352 -23.4223,-70.0848 25.98375,84.98347 -12.63879,-83.04413 16.56634,85.06601 -27.45351,-82.53438 6.7148,80.96169 -12.31264,-84.93383 22.74127,77.26388 -10.149,-68.0861 -6.65097,70.46119 2.92915,-81.65086 2.52018,83.64883 2.17532,-73.6281 -3.0392,70.28891 7.74537,-70.3264 -27.84469,62.14108 3.31141,-72.2368 2.13604,90.17685 23.37845,-88.15054 -10.98632,91.36007 -5.66431,-82.60479 -12.19598,60.74217 6.56991,-54.5776 1.88254,76.14457 16.47507,-90.06949 -41.79608,80.98293 25.84734,-78.46243 -23.34233,83.44555 10.01443,-82.29347 2.01333,55.92221 6.39042,-57.33128 -29.91763,59.7361 20.46728,-54.48081 3.00852,70.51567 9.6431,-78.10186 -30.80032,70.65065 23.10339,-60.61555 -27.05281,54.96106 25.37818,-67.98214 -13.00489,68.33677 28.12098,-48.25384 -32.70009,62.586 32.23341,-59.88673 -43.05774,39.4407 28.82789,-60.06423 -26.41639,51.87064 30.55804,-51.89952 -34.93668,52.35961 42.94717,-48.04225 -57.49174,53.54177 44.88068,-66.82687 -35.28406,70.59149 45.78079,-65.08421 -53.28781,67.15479 46.32029,-71.78054 -38.5216,47.13733 28.56679,-31.97891 -32.92229,30.66066 37.91131,-21.40455 -43.61873,27.30203 34.2715,-52.48683 -52.64818,46.39332 46.62503,-49.81091 -38.89746,41.28909 50.97653,-39.8995 -38.36518,37.84275 27.67342,-39.70634 -29.84891,49.01493 44.78052,-36.6025 -68.41925,48.21956 59.3716,-40.06704 -47.51388,23.48674 60.17882,-20.41433 -76.57738,13.58104 57.82772,-36.6796 -41.97741,42.9285 62.0898,-25.36612 -70.26891,6.32273 46.28222,-9.82919 -55.74144,18.68133 60.90377,-20.43495 -62.70906,31.35811 80.64041,-33.76563 -83.38232,17.47533 75.11715,-33.43343 -73.7598,30.28205 79.87159,-30.86334 -73.64839,37.46389 51.95887,-28.65375 -53.46309,5.66598 52.46084,-2.26987 -60.202932,-2.17506 76.764522,4.93401 -72.7814,-1.03703 61.51439,-5.63181 -74.814139,6.18758 85.844569,-15.29548 -58.67387,10.39238 43.48313,-12.89722 -55.49765,3.80692 59.39202,-1.83702 -62.82488,-0.0886 71.35858,8.39652 -69.94462,-12.02903 70.40185,-0.002 -71.51287,5.84792 62.93025,-2.07487 -59.70155,-4.34813 55.70087,-0.40921 -43.94225,-4.09003 59.08878,-7.42821 -86.442931,0.27644 75.374861,10.90986 -61.27919,-8.01169 72.45306,14.85358 -76.641278,-33.46198 60.053348,22.78519 -52.5521,-15.89307 53.4772,5.81595 -52.12445,-8.47202 73.74623,28.52547 -80.20839,-19.60127 74.03921,3.31683 -74.5743,-19.81022 82.79526,21.86018 -80.2735,-35.84558 62.25089,51.50234 -60.62059,-44.94528 55.44038,38.71309 -46.16744,-49.21873 70.09392,45.78725 -62.10767,-44.38647 41.89086,37.23231 -56.97442,-35.31202 75.69867,27.9541 -59.43653,-30.1401 47.66818,26.50401 -59.71877,-27.21243 68.71938,44.45333 -45.26598,-50.65687 30.30991,43.63653 -28.2492,-29.58691 38.87792,34.56304 -51.6492,-56.67029 39.53156,51.35139 -46.49897,-49.94214 52.44685,60.11026 -34.19341,-59.25157 43.49173,38.60159 -37.9433,-32.46041 32.9317,41.7915 -28.70792,-45.17095 38.60722,26.69316 -46.50846,-39.77436 53.44869,59.95889 -46.07244,-59.89328 35.51739,60.99696 -45.27112,-68.30693 57.853,55.05932 -42.46265,-62.00288 34.39478,70.89255 -30.09517,-63.38653 25.92624,49.95941 -28.4337,-62.44412 42.67013,68.86079 -31.95775,-62.00417 32.40185,49.11276 -27.94881,-56.98605 12.7838,79.41138 -25.23517,-64.49712 26.89569,67.25417 -23.03377,-81.64086 30.6893,78.31521 -9.56783,-85.42899 -3.08849,89.1611 -20.4908,-88.66067 29.9101,73.75297 -6.43087,-57.48124 -1.96817,61.44969 -10.11228,-77.81489 23.4223,70.0848 -25.98375,-55.7321 41.89016,53.79276 -16.56634,-55.81465 -1.79786,53.28302 -6.7148,-51.71032 12.31264,55.68246 6.5101,-77.26388 10.149,68.0861 -22.6004,-41.20982 -2.92914,52.39949 -2.52019,-54.39747 27.07604,44.37674 3.0392,-70.28891 -7.74536,70.3264 -1.40668,-62.14108 -3.31141,72.2368 -2.13604,-60.92549 5.87292,58.89918 10.98631,-62.1087 -23.58705,53.35342 12.19599,-60.74217 -6.56992,83.82897 27.36883,-76.14457 -16.47508,60.81812 12.54472,-51.73156 -25.84734,49.21106 23.34233,-54.19418 -10.01443,53.0421 27.23804,-55.92221 -35.64179,57.33128 29.91763,-59.7361 -20.46728,54.48081 26.24285,-41.26431 -38.89446,48.8505 30.80031,-41.39928 -23.10339,60.61554 27.05281,-84.21242 -25.37818,67.98214 42.25626,-68.33678 -28.12098,77.50521 32.70008,-62.58599 -32.23341,59.88673 13.80638,-68.69207 -28.82789,60.06423 55.66775,-51.87064 -59.8094,51.89952 64.18805,-52.35961 -42.94717,48.04225 28.24037,-53.54177 -44.88068,66.82687 64.53543,-41.34013 -45.7808,35.83285 24.03645,-37.90342 -17.06893,42.52917 38.52161,-47.13734 -57.81816,61.23029 62.17365,-59.91203 -67.16267,50.65592 72.87009,-56.5534 -63.52286,52.48683 52.64818,-46.39332 -46.62503,49.81091 38.89746,-41.28909 -50.97653,39.89949 67.61654,-37.84274 -56.92478,39.70634 59.10028,-49.01493 -44.78053,65.85386 39.1679,-48.21955 -59.37161,40.06704 76.76525,-52.73811 -60.17882,49.6657 z"
       inkscape:transform-center-y="99.238329"
       inkscape:transform-center-x="-399.564" />
    <path
       transform="matrix(-0.3236715,0,0,0.3236715,1064.7343,533.25113)"
       sodipodi:type="arc"
       style="fill:#000000;fill-opacity:1;stroke:#000000;stroke-width:7;stroke-miterlimit:4;stroke-opacity:1;stroke-dasharray:none"
       id="path3775-1-7"
       sodipodi:cx="200"
       sodipodi:cy="368"
       sodipodi:rx="100"
       sodipodi:ry="100"
       d="m 300,368 c 0,55.22847 -44.77153,100 -100,100 -55.22847,0 -100,-44.77153 -100,-100 0,-55.22847 44.77153,-100 100,-100 55.22847,0 100,44.77153 100,100 z"
       inkscape:transform-center-x="-400"
       inkscape:transform-center-y="100" />
    <path
       style="fill:#26492c;fill-opacity:1;stroke:#000000;stroke-width:1px;stroke-linecap:butt;stroke-linejoin:miter;stroke-opacity:1"
       d="m 1200,502.36224 c 0,0 -131.2816,-50 -200,-50 -68.71843,0 -200,0 -200,0 l 0,-50 c 0,0 131.28157,0 200,0 68.7184,0 200,50 200,50 z"
       id="path3815-1"
       inkscape:connector-curvature="0"
       sodipodi:nodetypes="czcczcc"
       inkscape:transform-center-x="-400"
       inkscape:transform-center-y="-100" />
    <path
       sodipodi:type="arc"
       style="fill:none;stroke:#000000;stroke-opacity:1"
       id="path3911"
       sodipodi:cx="600"
       sodipodi:cy="368"
       sodipodi:rx="200"
       sodipodi:ry="200"
       d="m 800,368 c 0,110.45695 -89.54305,200 -200,200 -110.45695,0 -200,-89.54305 -200,-200 0,-110.45695 89.54305,-200 200,-200 110.45695,0 200,89.54305 200,200 z"
       transform="translate(0,284.36224)" />
    <path
       transform="matrix(0,1,-1,0,968,52.36224)"
       sodipodi:type="arc"
       style="fill:none;stroke:#000000;stroke-width:7;stroke-miterlimit:4;stroke-opacity:1;stroke-dasharray:none"
       id="path3767-1"
       sodipodi:cx="200"
       sodipodi:cy="368"
       sodipodi:rx="200"
       sodipodi:ry="100"
       d="M 400,368 C 400,423.22847 310.45695,468 200,468 89.54305,468 0,423.22847 0,368 0,312.77153 89.54305,268 200,268 c 110.45695,0 200,44.77153 200,100 z"
       inkscape:transform-center-y="-400" />
    <path
       transform="matrix(0,1,-1,0,968,52.36224)"
       sodipodi:type="arc"
       style="fill:#0007fe;fill-opacity:1;stroke:#000000;stroke-width:7;stroke-miterlimit:4;stroke-opacity:1;stroke-dasharray:none"
       id="path3775-52"
       sodipodi:cx="200"
       sodipodi:cy="368"
       sodipodi:rx="100"
       sodipodi:ry="100"
       d="m 300,368 c 0,55.22847 -44.77153,100 -100,100 -55.22847,0 -100,-44.77153 -100,-100 0,-55.22847 44.77153,-100 100,-100 55.22847,0 100,44.77153 100,100 z"
       inkscape:transform-center-y="-400" />
    <path
       transform="matrix(0,1,-1,0,968,52.362244)"
       sodipodi:type="star"
       style="fill:#0afcff;fill-opacity:1;stroke:none"
       id="path3809-7"
       sodipodi:sides="180"
       sodipodi:cx="200"
       sodipodi:cy="368"
       sodipodi:r1="96.858826"
       sodipodi:r2="30.026236"
       sodipodi:arg1="-0.52359878"
       sodipodi:arg2="-0.50614549"
       inkscape:flatsided="false"
       inkscape:rounded="0"
       inkscape:randomized="0.151"
       d="m 279.92099,310.4043 -57.82772,36.6796 71.22877,-13.67713 -62.08979,25.36612 70.26891,-35.5741 -75.53359,39.08055 55.74144,-47.93269 -60.90377,49.68631 62.70906,-31.35811 -51.38904,33.76563 54.13095,-17.47533 -45.86578,4.18207 44.50843,-1.03068 -50.62022,1.61197 44.39702,-8.21253 -51.95887,28.65375 53.46309,-34.91734 -52.46084,31.52124 60.20293,-27.07631 -47.51315,24.31736 43.53003,-28.21435 -61.51439,34.88318 74.81414,-6.18758 -56.59321,-13.95588 58.67388,-10.39238 -72.7345,12.89722 55.49765,-3.80692 -59.39202,1.83702 62.82488,0.0886 -42.10721,20.85484 40.69325,-17.22233 -41.15048,0.002 42.2615,23.40344 -62.93025,-27.17649 88.95291,33.59949 -84.95223,-28.84215 73.19361,4.09003 -59.08877,7.42821 57.19156,-0.27644 -75.37486,-10.90986 61.27919,37.26306 -43.20169,-14.85359 47.38991,4.21062 -60.05335,-22.78519 52.5521,15.89307 -53.4772,-5.81595 52.12445,8.47202 -44.49486,0.72589 50.95702,19.60128 -44.78785,-32.5682 45.32295,19.81022 -53.5439,-21.86018 51.02213,35.84558 -62.25089,-22.25098 60.62059,15.69392 -55.44038,-9.46172 75.41881,19.96736 -70.09392,-16.53589 62.10767,15.13511 -71.14222,-37.23231 56.97441,35.31202 -46.4473,-27.9541 59.43653,30.1401 -76.91954,-26.50401 59.71876,27.21243 -39.46801,-15.20197 45.26598,21.40551 -59.56128,-14.38516 57.50056,29.5869 -68.12928,-34.56303 51.6492,27.41891 -39.53156,-22.10002 46.49897,20.69078 -52.44685,-30.85889 63.44477,59.25156 -72.74308,-67.85295 67.19466,61.71177 -62.18307,-41.7915 57.95928,45.17096 -38.60721,-55.94453 17.25709,39.77436 -24.19733,-30.70752 46.07245,30.64191 -64.76875,-31.7456 45.27111,39.05557 -28.60164,-55.05932 42.46266,62.00288 -63.64615,-41.64119 59.34653,34.13517 -55.1776,-49.95941 28.4337,62.44412 -13.41876,-68.86079 31.95775,62.00417 -32.40185,-49.11276 27.94881,56.98605 -42.03517,-50.16001 25.23518,64.49711 -26.8957,-67.25416 23.03377,52.38949 -30.6893,-49.06384 38.8192,56.17762 -26.16287,-59.90974 20.49079,59.40931 -29.9101,-73.75297 35.68224,86.73261 -27.2832,-61.44969 10.11228,48.56352 -23.4223,-70.0848 25.98375,84.98347 -12.63879,-83.04413 16.56634,85.06601 -27.45351,-82.53438 6.7148,80.96169 -12.31264,-84.93383 22.74127,77.26388 -10.149,-68.0861 -6.65097,70.46119 2.92915,-81.65086 2.52018,83.64883 2.17532,-73.6281 -3.0392,70.28891 7.74537,-70.3264 -27.84469,62.14108 3.31141,-72.2368 2.13604,90.17685 23.37845,-88.15054 -10.98632,91.36007 -5.66431,-82.60479 -12.19598,60.74217 6.56991,-54.5776 1.88254,76.14457 16.47507,-90.06949 -41.79608,80.98293 25.84734,-78.46243 -23.34233,83.44555 10.01443,-82.29347 2.01333,55.92221 6.39042,-57.33128 -29.91763,59.7361 20.46728,-54.48081 3.00852,70.51567 9.6431,-78.10186 -30.80032,70.65065 23.10339,-60.61555 -27.05281,54.96106 25.37818,-67.98214 -13.00489,68.33677 28.12098,-48.25384 -32.70009,62.586 32.23341,-59.88673 -43.05774,39.4407 28.82789,-60.06423 -26.41639,51.87064 30.55804,-51.89952 -34.93668,52.35961 42.94717,-48.04225 -57.49174,53.54177 44.88068,-66.82687 -35.28406,70.59149 45.78079,-65.08421 -53.28781,67.15479 46.32029,-71.78054 -38.5216,47.13733 28.56679,-31.97891 -32.92229,30.66066 37.91131,-21.40455 -43.61873,27.30203 34.2715,-52.48683 -52.64818,46.39332 46.62503,-49.81091 -38.89746,41.28909 50.97653,-39.8995 -38.36518,37.84275 27.67342,-39.70634 -29.84891,49.01493 44.78052,-36.6025 -68.41925,48.21956 59.3716,-40.06704 -47.51388,23.48674 60.17882,-20.41433 -76.57738,13.58104 57.82772,-36.6796 -41.97741,42.9285 62.0898,-25.36612 -70.26891,6.32273 46.28222,-9.82919 -55.74144,18.68133 60.90377,-20.43495 -62.70906,31.35811 80.64041,-33.76563 -83.38232,17.47533 75.11715,-33.43343 -73.7598,30.28205 79.87159,-30.86334 -73.64839,37.46389 51.95887,-28.65375 -53.46309,5.66598 52.46084,-2.26987 -60.202932,-2.17506 76.764522,4.93401 -72.7814,-1.03703 61.51439,-5.63181 -74.814139,6.18758 85.844569,-15.29548 -58.67387,10.39238 43.48313,-12.89722 -55.49765,3.80692 59.39202,-1.83702 -62.82488,-0.0886 71.35858,8.39652 -69.94462,-12.02903 70.40185,-0.002 -71.51287,5.84792 62.93025,-2.07487 -59.70155,-4.34813 55.70087,-0.40921 -43.94225,-4.09003 59.08878,-7.42821 -86.442931,0.27644 75.374861,10.90986 -61.27919,-8.01169 72.45306,14.85358 -76.641278,-33.46198 60.053348,22.78519 -52.5521,-15.89307 53.4772,5.81595 -52.12445,-8.47202 73.74623,28.52547 -80.20839,-19.60127 74.03921,3.31683 -74.5743,-19.81022 82.79526,21.86018 -80.2735,-35.84558 62.25089,51.50234 -60.62059,-44.94528 55.44038,38.71309 -46.16744,-49.21873 70.09392,45.78725 -62.10767,-44.38647 41.89086,37.23231 -56.97442,-35.31202 75.69867,27.9541 -59.43653,-30.1401 47.66818,26.50401 -59.71877,-27.21243 68.71938,44.45333 -45.26598,-50.65687 30.30991,43.63653 -28.2492,-29.58691 38.87792,34.56304 -51.6492,-56.67029 39.53156,51.35139 -46.49897,-49.94214 52.44685,60.11026 -34.19341,-59.25157 43.49173,38.60159 -37.9433,-32.46041 32.9317,41.7915 -28.70792,-45.17095 38.60722,26.69316 -46.50846,-39.77436 53.44869,59.95889 -46.07244,-59.89328 35.51739,60.99696 -45.27112,-68.30693 57.853,55.05932 -42.46265,-62.00288 34.39478,70.89255 -30.09517,-63.38653 25.92624,49.95941 -28.4337,-62.44412 42.67013,68.86079 -31.95775,-62.00417 32.40185,49.11276 -27.94881,-56.98605 12.7838,79.41138 -25.23517,-64.49712 26.89569,67.25417 -23.03377,-81.64086 30.6893,78.31521 -9.56783,-85.42899 -3.08849,89.1611 -20.4908,-88.66067 29.9101,73.75297 -6.43087,-57.48124 -1.96817,61.44969 -10.11228,-77.81489 23.4223,70.0848 -25.98375,-55.7321 41.89016,53.79276 -16.56634,-55.81465 -1.79786,53.28302 -6.7148,-51.71032 12.31264,55.68246 6.5101,-77.26388 10.149,68.0861 -22.6004,-41.20982 -2.92914,52.39949 -2.52019,-54.39747 27.07604,44.37674 3.0392,-70.28891 -7.74536,70.3264 -1.40668,-62.14108 -3.31141,72.2368 -2.13604,-60.92549 5.87292,58.89918 10.98631,-62.1087 -23.58705,53.35342 12.19599,-60.74217 -6.56992,83.82897 27.36883,-76.14457 -16.47508,60.81812 12.54472,-51.73156 -25.84734,49.21106 23.34233,-54.19418 -10.01443,53.0421 27.23804,-55.92221 -35.64179,57.33128 29.91763,-59.7361 -20.46728,54.48081 26.24285,-41.26431 -38.89446,48.8505 30.80031,-41.39928 -23.10339,60.61554 27.05281,-84.21242 -25.37818,67.98214 42.25626,-68.33678 -28.12098,77.50521 32.70008,-62.58599 -32.23341,59.88673 13.80638,-68.69207 -28.82789,60.06423 55.66775,-51.87064 -59.8094,51.89952 64.18805,-52.35961 -42.94717,48.04225 28.24037,-53.54177 -44.88068,66.82687 64.53543,-41.34013 -45.7808,35.83285 24.03645,-37.90342 -17.06893,42.52917 38.52161,-47.13734 -57.81816,61.23029 62.17365,-59.91203 -67.16267,50.65592 72.87009,-56.5534 -63.52286,52.48683 52.64818,-46.39332 -46.62503,49.81091 38.89746,-41.28909 -50.97653,39.89949 67.61654,-37.84274 -56.92478,39.70634 59.10028,-49.01493 -44.78053,65.85386 39.1679,-48.21955 -59.37161,40.06704 76.76525,-52.73811 -60.17882,49.6657 z"
       inkscape:transform-center-y="-399.564"
       inkscape:transform-center-x="-0.76167527" />
    <path
       transform="matrix(0,0.3236715,-0.3236715,0,719.11111,187.62794)"
       sodipodi:type="arc"
       style="fill:#000000;fill-opacity:1;stroke:#000000;stroke-width:7;stroke-miterlimit:4;stroke-opacity:1;stroke-dasharray:none"
       id="path3775-1-6"
       sodipodi:cx="200"
       sodipodi:cy="368"
       sodipodi:rx="100"
       sodipodi:ry="100"
       d="m 300,368 c 0,55.22847 -44.77153,100 -100,100 -55.22847,0 -100,-44.77153 -100,-100 0,-55.22847 44.77153,-100 100,-100 55.22847,0 100,44.77153 100,100 z"
       inkscape:transform-center-y="-400" />
    <path
       style="fill:#26492c;fill-opacity:1;stroke:#000000;stroke-width:1px;stroke-linecap:butt;stroke-linejoin:miter;stroke-opacity:1"
       d="m 750,52.36224 c 0,0 50,131.28157 50,200 0,68.71843 0,200 0,200 l 50,0 c 0,0 0,-131.28157 0,-200 0,-68.71843 -50,-200 -50,-200 z"
       id="path3815-14"
       inkscape:connector-curvature="0"
       sodipodi:nodetypes="czcczcc"
       inkscape:transform-center-x="-200"
       inkscape:transform-center-y="-400" />
    <path
       style="fill:#26492c;fill-opacity:1;stroke:#000000;stroke-width:1px;stroke-linecap:butt;stroke-linejoin:miter;stroke-opacity:1"
       d="m 450,52.36224 c 0,0 -50,131.28157 -50,200 0,68.71843 0,200 0,200 l -50,0 c 0,0 0,-131.28157 0,-200 0,-68.71843 50,-200 50,-200 z"
       id="path3815-14-2"
       inkscape:connector-curvature="0"
       sodipodi:nodetypes="czcczcc"
       inkscape:transform-center-x="200"
       inkscape:transform-center-y="-400" />
    <path
       sodipodi:type="arc"
       style="fill:none;stroke:#000000;stroke-opacity:1"
       id="path3954"
       sodipodi:cx="600"
       sodipodi:cy="368"
       sodipodi:rx="800"
       sodipodi:ry="400"
       d="m 1400,368 c 0,220.9139 -358.1722,400 -800,400 -441.8278,0 -800,-179.0861 -800,-400 0,-220.9139 358.1722,-400 800,-400 441.8278,0 800,179.0861 800,400 z"
       transform="translate(0,284.36224)" />
    <path
       transform="matrix(0,1,-1,0,968,52.36224)"
       sodipodi:type="arc"
       style="fill:none;stroke:#000000;stroke-opacity:1"
       id="path3954-3"
       sodipodi:cx="600"
       sodipodi:cy="368"
       sodipodi:rx="800"
       sodipodi:ry="400"
       d="m 1400,368 c 0,220.9139 -358.1722,400 -800,400 -441.8278,0 -800,-179.0861 -800,-400 0,-220.9139 358.1722,-400 800,-400 441.8278,0 800,179.0861 800,400 z" />
    <path
       transform="matrix(0.875,0,0,0.875,75,330.36224)"
       sodipodi:type="arc"
       style="fill:none;stroke:#000000;stroke-width:1.14285719;stroke-opacity:1"
       id="path3954-2"
       sodipodi:cx="600"
       sodipodi:cy="368"
       sodipodi:rx="800"
       sodipodi:ry="400"
       d="m 1400,368 c 0,220.9139 -358.1722,400 -800,400 -441.8278,0 -800,-179.0861 -800,-400 0,-220.9139 358.1722,-400 800,-400 441.8278,0 800,179.0861 800,400 z" />
    <path
       transform="matrix(0,0.875,-0.875,0,922,127.36224)"
       sodipodi:type="arc"
       style="fill:none;stroke:#000000;stroke-width:1.14285719;stroke-opacity:1"
       id="path3954-2-2"
       sodipodi:cx="600"
       sodipodi:cy="368"
       sodipodi:rx="800"
       sodipodi:ry="400"
       d="m 1400,368 c 0,220.9139 -358.1722,400 -800,400 -441.8278,0 -800,-179.0861 -800,-400 0,-220.9139 358.1722,-400 800,-400 441.8278,0 800,179.0861 800,400 z" />
    <path
       transform="matrix(0.75,0,0,0.75,150,376.36224)"
       sodipodi:type="arc"
       style="fill:none;stroke:#000000;stroke-width:1.33333337;stroke-opacity:1"
       id="path3954-2-1"
       sodipodi:cx="600"
       sodipodi:cy="368"
       sodipodi:rx="800"
       sodipodi:ry="400"
       d="m 1400,368 c 0,220.9139 -358.1722,400 -800,400 -441.8278,0 -800,-179.0861 -800,-400 0,-220.9139 358.1722,-400 800,-400 441.8278,0 800,179.0861 800,400 z" />
    <path
       transform="matrix(0,0.75,-0.75,0,876,202.36224)"
       sodipodi:type="arc"
       style="fill:none;stroke:#000000;stroke-width:1.33333337;stroke-opacity:1"
       id="path3954-2-1-6"
       sodipodi:cx="600"
       sodipodi:cy="368"
       sodipodi:rx="800"
       sodipodi:ry="400"
       d="m 1400,368 c 0,220.9139 -358.1722,400 -800,400 -441.8278,0 -800,-179.0861 -800,-400 0,-220.9139 358.1722,-400 800,-400 441.8278,0 800,179.0861 800,400 z" />
    <path
       sodipodi:type="star"
       style="fill:none;stroke:#000000;stroke-width:1px;stroke-linecap:butt;stroke-linejoin:miter;stroke-opacity:1"
       id="path3028"
       sodipodi:sides="5"
       sodipodi:cx="600"
       sodipodi:cy="368"
       sodipodi:r1="788.57141"
       sodipodi:r2="394.28571"
       sodipodi:arg1="-1.5707963"
       sodipodi:arg2="-0.9424778"
       inkscape:flatsided="true"
       inkscape:rounded="0"
       inkscape:randomized="0"
       d="m 600.00002,-420.57141 749.97598,544.88946 -286.4654,881.64965 -927.02126,0 -286.46531,-881.64969 z"
       transform="matrix(1.0702039,0,0,1.0702039,-42.122319,520.78022)"
       inkscape:transform-center-y="197.66467"
       inkscape:transform-center-x="-2.1458392e-005" />
    <path
       sodipodi:type="arc"
       style="fill:none;stroke:#000000;stroke-opacity:1"
       id="path3031"
       sodipodi:cx="600"
       sodipodi:cy="-32"
       sodipodi:rx="399.97958"
       sodipodi:ry="399.97958"
       d="M 999.97958,-32 C 999.97958,188.90262 820.90262,367.97958 600,367.97958 379.09738,367.97958 200.02042,188.90262 200.02042,-32 c 0,-220.90262 179.07696,-399.97958 399.97958,-399.97958 220.90262,0 399.97958,179.07696 399.97958,399.97958 z"
       transform="matrix(0.99880248,0,0,0.99880248,0.2389304,284.8035)" />
    <path
       sodipodi:type="arc"
       style="fill:none;stroke:#000000;stroke-opacity:1"
       id="path3031-1"
       sodipodi:cx="600"
       sodipodi:cy="-32"
       sodipodi:rx="399.97958"
       sodipodi:ry="399.97958"
       d="M 999.97958,-32 C 999.97958,188.90262 820.90262,367.97958 600,367.97958 379.09738,367.97958 200.02042,188.90262 200.02042,-32 c 0,-220.90262 179.07696,-399.97958 399.97958,-399.97958 220.90262,0 399.97958,179.07696 399.97958,399.97958 z"
       transform="matrix(0.99880248,0,0,0.99880248,-399.76107,284.80352)" />
    <path
       sodipodi:type="arc"
       style="fill:none;stroke:#000000;stroke-opacity:1"
       id="path3053"
       sodipodi:cx="200"
       sodipodi:cy="-32"
       sodipodi:rx="300"
       sodipodi:ry="300"
       d="m 500,-32 c 0,165.68542 -134.31458,300 -300,300 -165.685425,0 -300,-134.31458 -300,-300 0,-165.68542 134.314575,-300 300,-300 165.68542,0 300,134.31458 300,300 z"
       transform="translate(0,284.36224)" />
    <path
       transform="matrix(-1,0,0,1,1200,284.36224)"
       sodipodi:type="arc"
       style="fill:none;stroke:#000000;stroke-opacity:1"
       id="path3053-7"
       sodipodi:cx="200"
       sodipodi:cy="-32"
       sodipodi:rx="300"
       sodipodi:ry="300"
       d="m 500,-32 c 0,165.68542 -134.31458,300 -300,300 -165.685425,0 -300,-134.31458 -300,-300 0,-165.68542 134.314575,-300 300,-300 165.68542,0 300,134.31458 300,300 z"
       inkscape:transform-center-x="-400" />
    <path
       transform="matrix(0,1,-1,0,568,52.36224)"
       sodipodi:type="arc"
       style="fill:none;stroke:#000000;stroke-width:1;stroke-miterlimit:4;stroke-opacity:1;stroke-dasharray:none"
       id="path3954-3-4"
       sodipodi:cx="600"
       sodipodi:cy="368"
       sodipodi:rx="800"
       sodipodi:ry="400"
       d="m 1400,368 c 0,220.9139 -358.1722,400 -800,400 -441.8278,0 -800,-179.0861 -800,-400 0,-220.9139 358.1722,-400 800,-400 441.8278,0 800,179.0861 800,400 z" />
    <path
       transform="matrix(0,1,1,0,632,52.36224)"
       sodipodi:type="arc"
       style="fill:none;stroke:#000000;stroke-width:1;stroke-miterlimit:4;stroke-opacity:1;stroke-dasharray:none"
       id="path3954-3-4-0"
       sodipodi:cx="600"
       sodipodi:cy="368"
       sodipodi:rx="800"
       sodipodi:ry="400"
       d="m 1400,368 c 0,220.9139 -358.1722,400 -800,400 -441.8278,0 -800,-179.0861 -800,-400 0,-220.9139 358.1722,-400 800,-400 441.8278,0 800,179.0861 800,400 z"
       inkscape:transform-center-x="-400.5" />
    <path
       sodipodi:type="star"
       style="fill:none;stroke:#000000;stroke-width:7;stroke-miterlimit:4;stroke-opacity:1;stroke-dasharray:none"
       id="path3882"
       sodipodi:sides="4"
       sodipodi:cx="600"
       sodipodi:cy="768"
       sodipodi:r1="565.68542"
       sodipodi:r2="400"
       sodipodi:arg1="0.78539816"
       sodipodi:arg2="1.5707963"
       inkscape:flatsided="true"
       inkscape:rounded="0"
       inkscape:randomized="0"
       d="m 1000,1168 -800,0 0,-800 800,0 z"
       transform="translate(0,284.36224)" />
    <path
       sodipodi:type="star"
       style="fill:none;stroke:#000000;stroke-width:7;stroke-miterlimit:4;stroke-opacity:1;stroke-dasharray:none"
       id="path3890"
       sodipodi:sides="3"
       sodipodi:cx="600"
       sodipodi:cy="368"
       sodipodi:r1="400"
       sodipodi:r2="200"
       sodipodi:arg1="1.5707963"
       sodipodi:arg2="2.6179939"
       inkscape:flatsided="true"
       inkscape:rounded="0"
       inkscape:randomized="0"
       d="m 600.00001,768 -346.41018,-599.99999 692.82033,-2e-5 z"
       transform="matrix(1.1547006,0,0,1.1547006,-92.820375,458.37255)"
       inkscape:transform-center-y="115.47008"
       inkscape:transform-center-x="-2.9438912e-005" />
    <path
       sodipodi:type="star"
       style="fill:none;stroke:#000000;stroke-width:7;stroke-miterlimit:4;stroke-opacity:1;stroke-dasharray:none"
       id="path3892"
       sodipodi:sides="5"
       sodipodi:cx="600"
       sodipodi:cy="768"
       sodipodi:r1="300"
       sodipodi:r2="242.70509"
       sodipodi:arg1="-1.5707963"
       sodipodi:arg2="-0.9424778"
       inkscape:flatsided="true"
       inkscape:rounded="0"
       inkscape:randomized="0"
       d="m 600.00001,468 285.31695,207.29491 -108.98139,335.41019 -352.67115,0 -108.98137,-335.41021 z"
       transform="matrix(1.4019496,0,0,1.4019496,-241.16975,-294.36719)"
       inkscape:transform-center-y="-40.162301"
       inkscape:transform-center-x="1.9001548e-005" />
    <path
       sodipodi:type="star"
       style="fill:none;stroke:#000000;stroke-width:7;stroke-miterlimit:4;stroke-opacity:1;stroke-dasharray:none"
       id="path3890-9"
       sodipodi:sides="3"
       sodipodi:cx="600"
       sodipodi:cy="368"
       sodipodi:r1="400"
       sodipodi:r2="200"
       sodipodi:arg1="1.5707963"
       sodipodi:arg2="2.6179939"
       inkscape:flatsided="true"
       inkscape:rounded="0"
       inkscape:randomized="0"
       d="m 600.00001,768 -346.41018,-599.99999 692.82033,-2e-5 z"
       transform="matrix(1.1547006,0,0,-1.1547006,-92.82037,838.26902)"
       inkscape:transform-center-y="-350.45164" />
    <path
       transform="translate(300,984.36224)"
       sodipodi:type="arc"
       style="fill:none;stroke:#000000;stroke-width:7;stroke-miterlimit:4;stroke-opacity:1;stroke-dasharray:none;display:inline"
       id="path3767-4"
       sodipodi:cx="200"
       sodipodi:cy="368"
       sodipodi:rx="200"
       sodipodi:ry="100"
       d="M 400,368 C 400,423.22847 310.45695,468 200,468 89.54305,468 0,423.22847 0,368 0,312.77153 89.54305,268 200,268 c 110.45695,0 200,44.77153 200,100 z" />
    <path
       transform="translate(496.5,980.86224)"
       sodipodi:type="arc"
       style="fill:none;stroke:#000000;stroke-width:7;stroke-miterlimit:4;stroke-opacity:1;stroke-dasharray:none;display:inline"
       id="path3767-0"
       sodipodi:cx="200"
       sodipodi:cy="368"
       sodipodi:rx="200"
       sodipodi:ry="100"
       d="M 400,368 C 400,423.22847 310.45695,468 200,468 89.54305,468 0,423.22847 0,368 0,312.77153 89.54305,268 200,268 c 110.45695,0 200,44.77153 200,100 z" />
    <path
       sodipodi:type="star"
       style="fill:none;stroke:#000000;stroke-width:1;stroke-miterlimit:4;stroke-opacity:1;stroke-dasharray:none"
       id="path3087"
       sodipodi:sides="4"
       sodipodi:cx="200"
       sodipodi:cy="368"
       sodipodi:r1="400"
       sodipodi:r2="282.84271"
       sodipodi:arg1="0"
       sodipodi:arg2="0.78539816"
       inkscape:flatsided="true"
       inkscape:rounded="0"
       inkscape:randomized="0"
       d="M 600,368 200,768 -200,368 200,-32 z"
       transform="translate(400,284.36224)" />
    <path
       transform="matrix(1.487487,0,0,0.99247403,302.5026,1186.3792)"
       sodipodi:type="arc"
       style="fill:none;stroke:#000000;stroke-width:0.82302653;stroke-miterlimit:4;stroke-opacity:1;stroke-dasharray:none;display:inline"
       id="path3767-4-4"
       sodipodi:cx="200"
       sodipodi:cy="368"
       sodipodi:rx="200"
       sodipodi:ry="100"
       d="M 400,368 C 400,423.22847 310.45695,468 200,468 89.54305,468 0,423.22847 0,368 0,312.77153 89.54305,268 200,268 c 110.45695,0 200,44.77153 200,100 z" />
    <path
       sodipodi:type="arc"
       style="fill:none;stroke:#000000;stroke-width:7;stroke-miterlimit:4;stroke-opacity:1;stroke-dasharray:none"
       id="path3059"
       sodipodi:cx="600"
       sodipodi:cy="368"
       sodipodi:rx="800"
       sodipodi:ry="1000"
       d="m 1400,368 a 800,1000 0 1 1 -1600,0 800,1000 0 1 1 1600,0 z"
       transform="matrix(0.87258889,0,0,0.34807111,76.446666,-27.656818)" />
  </g>
  <g
     inkscape:groupmode="layer"
     id="layer2"
     inkscape:label="3glaz triangle">
    <path
       transform="matrix(0,1,-1,0,968,-532)"
       sodipodi:type="arc"
       style="fill:none;stroke:#000000;stroke-width:7;stroke-miterlimit:4;stroke-opacity:1;stroke-dasharray:none;display:inline"
       id="path3767-1-1"
       sodipodi:cx="200"
       sodipodi:cy="368"
       sodipodi:rx="200"
       sodipodi:ry="100"
       d="m 400,368 a 200,100 0 1 1 -400,0 200,100 0 1 1 400,0 z"
       inkscape:transform-center-x="0.76167089" />
    <path
       transform="matrix(0,1,-1,0,968,-532)"
       sodipodi:type="arc"
       style="fill:#0007fe;fill-opacity:1;stroke:#000000;stroke-width:7;stroke-miterlimit:4;stroke-opacity:1;stroke-dasharray:none;display:inline"
       id="path3775-52-7"
       sodipodi:cx="200"
       sodipodi:cy="368"
       sodipodi:rx="100"
       sodipodi:ry="100"
       d="m 300,368 a 100,100 0 1 1 -200,0 100,100 0 1 1 200,0 z"
       inkscape:transform-center-x="0.76167089" />
    <path
       transform="matrix(0,1,-1,0,968,-532)"
       sodipodi:type="star"
       style="fill:#0afcff;fill-opacity:1;stroke:none;display:inline"
       id="path3809-7-4"
       sodipodi:sides="180"
       sodipodi:cx="200"
       sodipodi:cy="368"
       sodipodi:r1="96.858826"
       sodipodi:r2="30.026236"
       sodipodi:arg1="-0.52359878"
       sodipodi:arg2="-0.50614549"
       inkscape:flatsided="false"
       inkscape:rounded="0"
       inkscape:randomized="0.151"
       d="m 279.92099,310.4043 -57.82772,36.6796 71.22877,-13.67713 -62.08979,25.36612 70.26891,-35.5741 -75.53359,39.08055 55.74144,-47.93269 -60.90377,49.68631 62.70906,-31.35811 -51.38904,33.76563 54.13095,-17.47533 -45.86578,4.18207 44.50843,-1.03068 -50.62022,1.61197 44.39702,-8.21253 -51.95887,28.65375 53.46309,-34.91734 -52.46084,31.52124 60.20293,-27.07631 -47.51315,24.31736 43.53003,-28.21435 -61.51439,34.88318 74.81414,-6.18758 -56.59321,-13.95588 58.67388,-10.39238 -72.7345,12.89722 55.49765,-3.80692 -59.39202,1.83702 62.82488,0.0886 -42.10721,20.85484 40.69325,-17.22233 -41.15048,0.002 42.2615,23.40344 -62.93025,-27.17649 88.95291,33.59949 -84.95223,-28.84215 73.19361,4.09003 -59.08877,7.42821 57.19156,-0.27644 -75.37486,-10.90986 61.27919,37.26306 -43.20169,-14.85359 47.38991,4.21062 -60.05335,-22.78519 52.5521,15.89307 -53.4772,-5.81595 52.12445,8.47202 -44.49486,0.72589 50.95702,19.60128 -44.78785,-32.5682 45.32295,19.81022 -53.5439,-21.86018 51.02213,35.84558 -62.25089,-22.25098 60.62059,15.69392 -55.44038,-9.46172 75.41881,19.96736 -70.09392,-16.53589 62.10767,15.13511 -71.14222,-37.23231 56.97441,35.31202 -46.4473,-27.9541 59.43653,30.1401 -76.91954,-26.50401 59.71876,27.21243 -39.46801,-15.20197 45.26598,21.40551 -59.56128,-14.38516 57.50056,29.5869 -68.12928,-34.56303 51.6492,27.41891 -39.53156,-22.10002 46.49897,20.69078 -52.44685,-30.85889 63.44477,59.25156 -72.74308,-67.85295 67.19466,61.71177 -62.18307,-41.7915 57.95928,45.17096 -38.60721,-55.94453 17.25709,39.77436 -24.19733,-30.70752 46.07245,30.64191 -64.76875,-31.7456 45.27111,39.05557 -28.60164,-55.05932 42.46266,62.00288 -63.64615,-41.64119 59.34653,34.13517 -55.1776,-49.95941 28.4337,62.44412 -13.41876,-68.86079 31.95775,62.00417 -32.40185,-49.11276 27.94881,56.98605 -42.03517,-50.16001 25.23518,64.49711 -26.8957,-67.25416 23.03377,52.38949 -30.6893,-49.06384 38.8192,56.17762 -26.16287,-59.90974 20.49079,59.40931 -29.9101,-73.75297 35.68224,86.73261 -27.2832,-61.44969 10.11228,48.56352 -23.4223,-70.0848 25.98375,84.98347 -12.63879,-83.04413 16.56634,85.06601 -27.45351,-82.53438 6.7148,80.96169 -12.31264,-84.93383 22.74127,77.26388 -10.149,-68.0861 -6.65097,70.46119 2.92915,-81.65086 2.52018,83.64883 2.17532,-73.6281 -3.0392,70.28891 7.74537,-70.3264 -27.84469,62.14108 3.31141,-72.2368 2.13604,90.17685 23.37845,-88.15054 -10.98632,91.36007 -5.66431,-82.60479 -12.19598,60.74217 6.56991,-54.5776 1.88254,76.14457 16.47507,-90.06949 -41.79608,80.98293 25.84734,-78.46243 -23.34233,83.44555 10.01443,-82.29347 2.01333,55.92221 6.39042,-57.33128 -29.91763,59.7361 20.46728,-54.48081 3.00852,70.51567 9.6431,-78.10186 -30.80032,70.65065 23.10339,-60.61555 -27.05281,54.96106 25.37818,-67.98214 -13.00489,68.33677 28.12098,-48.25384 -32.70009,62.586 32.23341,-59.88673 -43.05774,39.4407 28.82789,-60.06423 -26.41639,51.87064 30.55804,-51.89952 -34.93668,52.35961 42.94717,-48.04225 -57.49174,53.54177 44.88068,-66.82687 -35.28406,70.59149 45.78079,-65.08421 -53.28781,67.15479 46.32029,-71.78054 -38.5216,47.13733 28.56679,-31.97891 -32.92229,30.66066 37.91131,-21.40455 -43.61873,27.30203 34.2715,-52.48683 -52.64818,46.39332 46.62503,-49.81091 -38.89746,41.28909 50.97653,-39.8995 -38.36518,37.84275 27.67342,-39.70634 -29.84891,49.01493 44.78052,-36.6025 -68.41925,48.21956 59.3716,-40.06704 -47.51388,23.48674 60.17882,-20.41433 -76.57738,13.58104 57.82772,-36.6796 -41.97741,42.9285 62.0898,-25.36612 -70.26891,6.32273 46.28222,-9.82919 -55.74144,18.68133 60.90377,-20.43495 -62.70906,31.35811 80.64041,-33.76563 -83.38232,17.47533 75.11715,-33.43343 -73.7598,30.28205 79.87159,-30.86334 -73.64839,37.46389 51.95887,-28.65375 -53.46309,5.66598 52.46084,-2.26987 -60.202932,-2.17506 76.764522,4.93401 -72.7814,-1.03703 61.51439,-5.63181 -74.814139,6.18758 85.844569,-15.29548 -58.67387,10.39238 43.48313,-12.89722 -55.49765,3.80692 59.39202,-1.83702 -62.82488,-0.0886 71.35858,8.39652 -69.94462,-12.02903 70.40185,-0.002 -71.51287,5.84792 62.93025,-2.07487 -59.70155,-4.34813 55.70087,-0.40921 -43.94225,-4.09003 59.08878,-7.42821 -86.442931,0.27644 75.374861,10.90986 -61.27919,-8.01169 72.45306,14.85358 -76.641278,-33.46198 60.053348,22.78519 -52.5521,-15.89307 53.4772,5.81595 -52.12445,-8.47202 73.74623,28.52547 -80.20839,-19.60127 74.03921,3.31683 -74.5743,-19.81022 82.79526,21.86018 -80.2735,-35.84558 62.25089,51.50234 -60.62059,-44.94528 55.44038,38.71309 -46.16744,-49.21873 70.09392,45.78725 -62.10767,-44.38647 41.89086,37.23231 -56.97442,-35.31202 75.69867,27.9541 -59.43653,-30.1401 47.66818,26.50401 -59.71877,-27.21243 68.71938,44.45333 -45.26598,-50.65687 30.30991,43.63653 -28.2492,-29.58691 38.87792,34.56304 -51.6492,-56.67029 39.53156,51.35139 -46.49897,-49.94214 52.44685,60.11026 -34.19341,-59.25157 43.49173,38.60159 -37.9433,-32.46041 32.9317,41.7915 -28.70792,-45.17095 38.60722,26.69316 -46.50846,-39.77436 53.44869,59.95889 -46.07244,-59.89328 35.51739,60.99696 -45.27112,-68.30693 57.853,55.05932 -42.46265,-62.00288 34.39478,70.89255 -30.09517,-63.38653 25.92624,49.95941 -28.4337,-62.44412 42.67013,68.86079 -31.95775,-62.00417 32.40185,49.11276 -27.94881,-56.98605 12.7838,79.41138 -25.23517,-64.49712 26.89569,67.25417 -23.03377,-81.64086 30.6893,78.31521 -9.56783,-85.42899 -3.08849,89.1611 -20.4908,-88.66067 29.9101,73.75297 -6.43087,-57.48124 -1.96817,61.44969 -10.11228,-77.81489 23.4223,70.0848 -25.98375,-55.7321 41.89016,53.79276 -16.56634,-55.81465 -1.79786,53.28302 -6.7148,-51.71032 12.31264,55.68246 6.5101,-77.26388 10.149,68.0861 -22.6004,-41.20982 -2.92914,52.39949 -2.52019,-54.39747 27.07604,44.37674 3.0392,-70.28891 -7.74536,70.3264 -1.40668,-62.14108 -3.31141,72.2368 -2.13604,-60.92549 5.87292,58.89918 10.98631,-62.1087 -23.58705,53.35342 12.19599,-60.74217 -6.56992,83.82897 27.36883,-76.14457 -16.47508,60.81812 12.54472,-51.73156 -25.84734,49.21106 23.34233,-54.19418 -10.01443,53.0421 27.23804,-55.92221 -35.64179,57.33128 29.91763,-59.7361 -20.46728,54.48081 26.24285,-41.26431 -38.89446,48.8505 30.80031,-41.39928 -23.10339,60.61554 27.05281,-84.21242 -25.37818,67.98214 42.25626,-68.33678 -28.12098,77.50521 32.70008,-62.58599 -32.23341,59.88673 13.80638,-68.69207 -28.82789,60.06423 55.66775,-51.87064 -59.8094,51.89952 64.18805,-52.35961 -42.94717,48.04225 28.24037,-53.54177 -44.88068,66.82687 64.53543,-41.34013 -45.7808,35.83285 24.03645,-37.90342 -17.06893,42.52917 38.52161,-47.13734 -57.81816,61.23029 62.17365,-59.91203 -67.16267,50.65592 72.87009,-56.5534 -63.52286,52.48683 52.64818,-46.39332 -46.62503,49.81091 38.89746,-41.28909 -50.97653,39.89949 67.61654,-37.84274 -56.92478,39.70634 59.10028,-49.01493 -44.78053,65.85386 39.1679,-48.21955 -59.37161,40.06704 76.76525,-52.73811 -60.17882,49.6657 z"
       inkscape:transform-center-y="0.43599561" />
    <path
       transform="matrix(0,0.3236715,-0.3236715,0,719.11115,-396.7343)"
       sodipodi:type="arc"
       style="fill:#000000;fill-opacity:1;stroke:#000000;stroke-width:7;stroke-miterlimit:4;stroke-opacity:1;stroke-dasharray:none;display:inline"
       id="path3775-1-6-0"
       sodipodi:cx="200"
       sodipodi:cy="368"
       sodipodi:rx="100"
       sodipodi:ry="100"
       d="m 300,368 a 100,100 0 1 1 -200,0 100,100 0 1 1 200,0 z"
       inkscape:transform-center-x="0.76163289" />
    <path
       sodipodi:type="arc"
       style="fill:none;stroke:#000000;stroke-width:1;stroke-miterlimit:4;stroke-opacity:1;stroke-dasharray:none"
       id="path3855"
       sodipodi:cx="600"
       sodipodi:cy="-332"
       sodipodi:rx="200"
       sodipodi:ry="200"
       d="m 800,-332 a 200,200 0 1 1 -400,0 200,200 0 1 1 400,0 z"
       transform="matrix(0.99750623,0,0,0.99750623,1.496262,-0.82793164)" />
  </g>
</svg>
