<?xml version="1.0" encoding="UTF-8" standalone="no"?>
<!-- Created with Inkscape (http://www.inkscape.org/) -->

<svg
   xmlns:dc="http://purl.org/dc/elements/1.1/"
   xmlns:cc="http://creativecommons.org/ns#"
   xmlns:rdf="http://www.w3.org/1999/02/22-rdf-syntax-ns#"
   xmlns:svg="http://www.w3.org/2000/svg"
   xmlns="http://www.w3.org/2000/svg"
   version="1.1"
   width="744.09448"
   height="1052.3622"
   id="svg2">
  <defs
     id="defs4" />
  <metadata
     id="metadata7">
    <rdf:RDF>
      <cc:Work
         rdf:about="">
        <dc:format>image/svg+xml</dc:format>
        <dc:type
           rdf:resource="http://purl.org/dc/dcmitype/StillImage" />
        <dc:title></dc:title>
      </cc:Work>
    </rdf:RDF>
  </metadata>
  <g
     id="layer1">
    <g
       id="g2987"
       style="opacity:0.32231403;fill:#000000;fill-opacity:1;stroke:none">
      <path
         d="m 234.28571,650.65659 191.42858,101.70559 70.8181,-50.31002 -192.90405,-68.32634 z"
         id="path2997"
         style="fill:#afafde;fill-rule:evenodd;stroke:none" />
      <path
         d="m 234.28571,520.93361 0,129.72298 69.34263,-16.93077 0,-112.07846 z"
         id="path2989"
         style="fill:#353564;fill-rule:evenodd;stroke:none" />
      <path
         d="m 303.62834,521.64736 192.90405,-2.88041 0,183.28521 -192.90405,-68.32634 z"
         id="path2999"
         style="fill:#e9e9ff;fill-rule:evenodd;stroke:none" />
      <path
         d="m 234.28571,520.93361 191.42858,-4.28757 70.8181,2.12091 -192.90405,2.88041 z"
         id="path2991"
         style="fill:#4d4d9f;fill-rule:evenodd;stroke:none" />
      <path
         d="m 425.71429,516.64604 0,235.71614 70.8181,-50.31002 0,-183.28521 z"
         id="path2995"
         style="fill:#d7d7ff;fill-rule:evenodd;stroke:none" />
      <path
         d="m 234.28571,520.93361 191.42858,-4.28757 0,235.71614 -191.42858,-101.70559 z"
         id="path2993"
         style="fill:#8686bf;fill-rule:evenodd;stroke:none" />
    </g>
    <path
       d="m 345.75835,435.21933 a 105.71429,121.42857 0 1 1 -0.58058,0.002"
       id="path3001"
       style="opacity:0.32231403;fill:#000000;fill-opacity:1;stroke:none" />
    <rect
       width="125.71429"
       height="108.57143"
       x="374.28571"
       y="512.36218"
       id="rect3003"
       style="opacity:0.32231403;fill:#000000;fill-opacity:1;stroke:none" />
  </g>
</svg>
